<svg width="27" height="26" viewBox="0 0 27 26" fill="none" xmlns="http://www.w3.org/2000/svg">
<path fill-rule="evenodd" clip-rule="evenodd" d="M17.5917 11.5066C17.7973 10.4417 17.9049 9.3418 17.9049 8.21679V0.497009H0.648964V25.4728C4.82764 25.4728 8.6594 23.9875 11.6451 21.516C14.6238 23.5004 19.4001 25.3867 25.1707 24.3375C23.5813 23.6563 17.4509 19.5694 17.6779 11.3955C17.6504 11.4334 17.6216 11.4705 17.5917 11.5066Z" fill="#FFD955"/>
<path d="M17.5917 11.5066L17.8644 11.732L17.2443 11.4396L17.5917 11.5066ZM17.9049 0.497009V0.143221H18.2587V0.497009H17.9049ZM0.648964 0.497009H0.295176V0.143221H0.648964V0.497009ZM0.648964 25.4728V25.8265H0.295176V25.4728H0.648964ZM11.6451 21.516L11.4195 21.2435L11.6222 21.0757L11.8413 21.2216L11.6451 21.516ZM25.1707 24.3375L25.31 24.0123L26.3904 24.4753L25.2339 24.6856L25.1707 24.3375ZM17.6779 11.3955L17.3918 11.1874L18.0633 10.2641L18.0316 11.4053L17.6779 11.3955ZM18.2587 8.21679C18.2587 9.36442 18.1489 10.4867 17.9391 11.5737L17.2443 11.4396C17.4457 10.3966 17.5511 9.31918 17.5511 8.21679H18.2587ZM18.2587 0.497009V8.21679H17.5511V0.497009H18.2587ZM0.648964 0.143221H17.9049V0.850798H0.648964V0.143221ZM0.295176 25.4728V0.497009H1.00275V25.4728H0.295176ZM11.8707 21.7885C8.8239 24.3106 4.913 25.8265 0.648964 25.8265V25.119C4.74228 25.119 8.49491 23.6643 11.4195 21.2435L11.8707 21.7885ZM25.2339 24.6856C19.3507 25.7552 14.4825 23.8313 11.449 21.8104L11.8413 21.2216C14.7651 23.1694 19.4495 25.0181 25.1074 23.9894L25.2339 24.6856ZM18.0316 11.4053C17.9208 15.3946 19.3593 18.3802 21.0194 20.4553C22.6864 22.539 24.5695 23.6949 25.31 24.0123L25.0313 24.6627C24.1824 24.2989 22.2057 23.0708 20.4669 20.8973C18.7211 18.7151 17.208 15.5703 17.3243 11.3857L18.0316 11.4053ZM17.319 11.2813C17.3443 11.2506 17.3686 11.2193 17.3918 11.1874L17.9641 11.6036C17.9321 11.6475 17.8989 11.6903 17.8644 11.732L17.319 11.2813Z" fill="#FFD955"/>
</svg>
