<svg width="14" height="14" viewBox="0 0 14 14" fill="none" xmlns="http://www.w3.org/2000/svg">
<path fill-rule="evenodd" clip-rule="evenodd" d="M4.50781 6.63975C4.40274 6.09544 4.34771 5.5333 4.34771 4.95831V1.01266H13.1674V13.778C11.0316 13.778 9.07319 13.0188 7.54717 11.7557C6.02474 12.7699 3.58354 13.734 0.634162 13.1977C1.4465 12.8496 4.5798 10.7607 4.46376 6.58297C4.47784 6.60234 4.49253 6.62126 4.50781 6.63975Z" fill="#37D15D"/>
<path d="M4.50781 6.63975L4.36841 6.75493L4.68535 6.60548L4.50781 6.63975ZM4.34771 1.01266V0.831839H4.16689V1.01266H4.34771ZM13.1674 1.01266H13.3482V0.831839H13.1674V1.01266ZM13.1674 13.778V13.9588H13.3482V13.778H13.1674ZM7.54717 11.7557L7.66247 11.6164L7.55885 11.5306L7.44691 11.6052L7.54717 11.7557ZM0.634162 13.1977L0.562932 13.0315L0.0107568 13.2682L0.601815 13.3756L0.634162 13.1977ZM4.46376 6.58297L4.61 6.47662L4.2668 6.00473L4.283 6.58799L4.46376 6.58297ZM4.16689 4.95831C4.16689 5.54486 4.22302 6.11848 4.33026 6.67402L4.68535 6.60548C4.58245 6.0724 4.52854 5.52174 4.52854 4.95831H4.16689ZM4.16689 1.01266V4.95831H4.52854V1.01266H4.16689ZM13.1674 0.831839H4.34771V1.19349H13.1674V0.831839ZM13.3482 13.778V1.01266H12.9866V13.778H13.3482ZM7.43186 11.8949C8.98911 13.184 10.988 13.9588 13.1674 13.9588V13.5972C11.0753 13.5972 9.15726 12.8537 7.66247 11.6164L7.43186 11.8949ZM0.601815 13.3756C3.60879 13.9224 6.09698 12.939 7.64742 11.9061L7.44691 11.6052C5.9525 12.6007 3.55829 13.5456 0.666509 13.0198L0.601815 13.3756ZM4.283 6.58799C4.33964 8.62695 3.60437 10.1529 2.7559 11.2135C1.90389 12.2785 0.941401 12.8693 0.562932 13.0315L0.705392 13.3639C1.13926 13.178 2.14959 12.5503 3.0383 11.4394C3.93056 10.3241 4.70392 8.71673 4.64451 6.57795L4.283 6.58799ZM4.6472 6.52457C4.63426 6.50891 4.62185 6.49292 4.61 6.47662L4.31752 6.68933C4.33383 6.71175 4.3508 6.73361 4.36841 6.75493L4.6472 6.52457Z" fill="#37D15D"/>
</svg>
