<svg width="56" height="28" viewBox="0 0 56 28" fill="none" xmlns="http://www.w3.org/2000/svg">
<g clip-path="url(#clip0_15_1015)">
<mask id="mask0_15_1015" style="mask-type:luminance" maskUnits="userSpaceOnUse" x="1" y="0" width="55" height="28">
<path d="M55.0613 0.583618H1.07422V27.4163H55.0613V0.583618Z" fill="white"/>
</mask>
<g mask="url(#mask0_15_1015)">
<path d="M17.0671 14.7979L22.3416 0.583618H18.8551L16.4413 6.75209L16.9777 0.583618H13.3124L8.03788 14.7979H11.435L14.0276 7.91427L13.5806 14.6191L17.0671 14.7979ZM21.1794 14.7979L26.4539 0.583618H23.1462L17.7823 14.7979H21.1794ZM30.745 13.904L30.5662 6.75209L35.5725 0.941211L30.745 13.904ZM55.0614 8.89765L38.0757 13.2782L38.5227 11.9372H34.9468L36.1089 8.54006H39.1485L40.0425 5.94751L37.0029 6.12631L38.0757 3.26556H41.0258L42.0092 0.673016H32.4436L28.9571 4.78533L30.6556 0.583618H27.2585L21.984 14.7979H25.4705L27.7055 8.71885V14.7979H32.1754L16.1731 18.9996C14.5043 19.4764 13.0143 19.6851 11.7032 19.6254C10.392 19.5658 9.37885 19.2082 8.66366 18.5527C7.05449 17.3607 6.48825 15.5429 6.9651 13.0994C7.26305 11.4902 7.91862 9.94066 8.93186 8.45066C6.54788 10.9538 4.78969 13.0696 3.65737 14.7979C2.40579 16.6455 1.60121 18.4633 1.24361 20.2512C0.886018 22.0392 1.09458 23.4993 1.8694 24.6317C3.95533 28.0885 8.51463 28.3268 15.5473 25.3469L55.0614 8.89765Z" fill="#1B1B1B" fill-opacity="0.55"/>
</g>
</g>
<defs>
<clipPath id="clip0_15_1015">
<rect width="55" height="28" fill="white" transform="translate(0.484375)"/>
</clipPath>
</defs>
</svg>
