<svg width="31" height="30" viewBox="0 0 31 30" fill="none" xmlns="http://www.w3.org/2000/svg">
<g clip-path="url(#clip0_15_985)">
<mask id="mask0_15_985" style="mask-type:luminance" maskUnits="userSpaceOnUse" x="1" y="0" width="29" height="30">
<path d="M29.8729 0.394592H1.54553V29.5954H29.8729V0.394592Z" fill="white"/>
</mask>
<g mask="url(#mask0_15_985)">
<path fill-rule="evenodd" clip-rule="evenodd" d="M15.2997 9.95817C15.3289 9.81137 15.946 6.5059 15.946 6.5059L15.9309 6.49194C16.0633 6.49194 17.0914 6.08054 17.6937 5.72802C18.2961 5.37551 19.7359 4.37631 20.1323 4.0972C20.1579 4.07916 20.1909 4.05535 20.2307 4.0266C20.808 3.61036 22.8137 2.16395 24.6132 2.24616C25.2892 2.24616 26.8164 2.39297 27.7274 4.3029C27.3749 0.924026 25.3623 0.439217 23.5557 0.395118C22.023 0.358184 19.0091 2.27828 18.2253 2.7776C18.168 2.81409 18.1227 2.84299 18.0906 2.86299C17.9316 2.96241 17.776 3.07528 17.5986 3.20387C17.2518 3.4554 16.8221 3.76705 16.1222 4.15581C14.9175 5.03723 13.6248 5.15474 13.1841 5.15474C12.7434 5.15474 12.0383 4.89042 12.0383 4.89042L11.6269 7.03536C11.6269 7.03536 11.8912 7.21176 12.3026 7.21176C12.7138 7.21176 12.9195 7.24106 12.9195 7.24106C12.9783 7.50566 12.5669 9.35671 12.5669 9.35671C13.1107 9.7974 13.1696 10.4731 13.1841 10.7963C13.1988 11.1196 13.052 11.4132 12.8315 11.3545C12.7885 11.3202 12.7957 11.2408 12.8063 11.1251C12.8137 11.0427 12.8229 10.9418 12.8168 10.8257C12.8168 9.85604 11.6856 9.32711 11.2594 9.37123C10.8335 9.37123 9.40836 9.57666 9.21746 11.4718C9.21746 13.9692 10.8921 14.4541 11.891 14.4541C12.8899 14.4541 13.5218 14.2924 13.9036 13.7635C14.4473 13.4258 15.0937 11.1631 15.123 11.0604C15.1522 10.9577 15.2109 10.9136 15.2109 10.9136C15.0937 12.3973 15.3139 13.7342 17.1356 13.7342C18.957 13.7342 19.7948 12.3825 19.7948 12.3825C19.7948 12.3825 20.309 13.3814 21.2051 13.3814C22.1013 13.3814 22.9679 12.2502 22.9679 12.2502C22.9679 12.2502 23.247 12.8525 23.9224 12.8525C24.789 12.8525 25.568 11.6479 25.568 11.6479C25.568 11.6479 25.6264 12.2061 26.4201 12.2061C27.2133 12.2061 27.7274 11.6038 27.7274 11.6038C27.7274 11.6038 27.4924 13.9544 27.5072 13.9544C27.0606 14.0101 26.8004 14.2776 26.2974 14.7944L26.2141 14.8799C25.656 15.453 25.5683 16.3196 25.5683 16.3196C25.5683 16.3196 26.4787 15.5261 27.1547 15.3207C27.7866 14.9972 28.844 14.9679 28.844 14.9679L29.8728 6.31499L28.4184 6.55L27.8896 10.3403C27.8896 10.3403 27.8161 11.0015 27.2873 11.0015C26.7584 11.0015 26.7584 10.4581 26.7584 10.4581L27.1988 6.74119L25.7151 6.9321C25.7151 6.9321 25.304 10.2083 25.2451 10.7517C25.1862 11.2954 24.7893 11.589 24.4078 11.5745C24.0257 11.5597 24.1722 10.8547 24.1722 10.8547L24.9071 4.53736L23.2325 4.62555C23.2325 4.62555 22.4097 11.0453 22.3804 11.3537C22.3511 11.6622 21.9835 12.147 21.6163 12.147C21.2492 12.147 21.3812 11.5739 21.3812 11.5739L22.2037 4.69868L20.4999 4.80167C20.4999 4.80167 20.0446 8.85627 19.8096 10.5312C19.2656 12.25 18.3256 12.529 17.929 12.529C17.459 12.6169 16.9005 12.0294 16.9154 11.5154C19.1043 11.5449 19.3982 9.39996 19.3982 9.10606C19.3982 8.81215 19.3541 7.76914 17.9438 7.62232C16.5574 7.69846 15.7656 9.29491 15.5019 9.82668C15.461 9.909 15.4329 9.96582 15.4172 9.98745C15.2997 10.1491 15.2703 10.1053 15.2997 9.95817ZM21.3356 23.4789L21.2637 23.4921C19.6799 23.6373 17.4977 25.0927 16.6995 25.625C16.6108 25.6841 16.5392 25.7319 16.4875 25.7652C16.321 25.8533 16.0967 25.9987 15.8276 26.1733C14.8317 26.8192 13.2206 27.8639 11.6451 27.8819C10.0724 27.8632 8.64615 26.5485 8.12347 26.0667C8.00779 25.96 7.93637 25.8941 7.91741 25.8922C9.45808 28.6992 10.9317 29.5491 13.0599 29.5954C14.9815 29.5376 17.2006 28.1923 18.0747 27.5255C18.9486 26.859 20.8009 25.5935 22.1239 25.1908C23.1733 24.8724 24.4734 24.843 24.4734 24.843L25.5118 16.2384L24.0765 16.4737L23.5476 20.264C23.5476 20.264 23.4446 20.8959 22.9157 20.8959C22.3868 20.8959 22.377 20.3622 22.377 20.3622L22.8277 16.6545L21.3441 16.8458C21.3441 16.8458 20.9232 20.1316 20.8649 20.6756C20.806 21.2191 20.3792 21.4837 19.9972 21.4689C19.615 21.4541 19.7518 20.7781 19.7518 20.7781L20.5363 14.451L18.8423 14.54C18.8423 14.54 18.0387 20.9403 18.0094 21.2487C17.9801 21.5574 17.5935 22.0419 17.2262 22.0419C16.8589 22.0419 16.9901 21.4787 16.9901 21.4787L17.8229 14.6126L16.1191 14.7056C16.1191 14.7056 15.6839 18.7216 15.4489 20.3963C14.9052 22.115 13.9845 22.453 13.5879 22.453C12.8926 22.3455 12.4913 21.9149 12.5061 21.4008C14.6951 21.4304 15.0568 19.324 15.0568 19.0301C15.0568 18.7362 14.8832 17.5059 13.6024 17.5059C11.9211 17.5482 11.3491 19.1449 11.1437 19.7183C11.1078 19.8186 11.0831 19.8875 11.0657 19.9115C11.0191 19.9756 10.9752 20.0913 10.9312 20.2076C10.864 20.3848 10.7963 20.5635 10.7176 20.5635C10.7056 20.2319 10.6241 19.5919 10.4221 19.1543C10.2203 18.716 9.74637 17.8628 9.28446 17.8748C8.82255 17.8868 8.73992 17.8514 8.73992 17.8514C8.73992 17.8514 8.6813 17.7925 8.76391 17.7565C8.76888 17.7543 8.77867 17.7508 8.79264 17.7459C9.01203 17.6678 10.2677 17.2212 10.2677 15.6961C10.2677 14.0737 8.94171 13.8724 8.57469 13.8724H8.56396C8.16604 13.8722 5.98448 13.8709 5.10492 16.3232C4.96258 16.537 4.64301 19.4855 4.64301 19.4855C4.64301 19.4855 5.21153 19.7819 5.21153 20.5512C5.21153 21.27 4.91118 21.2453 4.83327 21.2389C4.82774 21.2384 4.82334 21.238 4.82024 21.238C4.74049 21.1871 4.78616 21.055 4.83582 20.9115C4.86681 20.8219 4.89936 20.7278 4.90397 20.646C4.91597 20.4328 4.60728 19.7351 3.58912 19.6751C2.57069 19.6156 1.4462 20.9174 1.55253 21.6757C1.52881 22.3637 1.89583 24.222 4.03903 24.222C6.18224 24.222 6.47865 22.8483 6.47865 22.8483C6.47865 22.8483 6.78622 23.9024 7.69804 23.9024C8.60986 23.9024 9.91186 23.1796 10.5516 21.475C10.5756 21.321 10.6252 21.4337 10.6252 21.4337C10.5663 22.4968 10.9732 23.6574 12.7947 23.6574C14.6164 23.6574 15.4536 22.3059 15.4536 22.3059C15.4536 22.3059 15.889 23.2759 16.785 23.2759C17.6812 23.2759 18.5974 22.1736 18.5974 22.1736C18.5974 22.1736 18.847 22.7369 19.5229 22.7369C20.3899 22.7369 21.1682 21.5524 21.1682 21.5524C21.1682 21.5524 21.2861 22.1295 22.0792 22.1295C22.8724 22.1295 23.3575 21.5079 23.3575 21.5079C23.3575 21.5079 23.1608 23.3297 23.1755 23.3297C22.2021 23.3193 21.8128 23.391 21.3356 23.4789ZM14.0945 19.2724C13.9181 20.3888 12.596 20.3888 12.596 20.3888C12.6253 19.1253 13.4185 18.773 13.7124 18.773C14.0066 18.773 14.0652 18.9196 14.0945 19.2724ZM18.3547 9.32664C18.1783 10.4431 16.8562 10.4431 16.8562 10.4431C16.8855 9.17961 17.6787 8.82707 17.9726 8.82707C18.2665 8.82707 18.3253 8.97418 18.3547 9.32664ZM6.72732 21.4394C6.69243 21.8416 7.08261 22.4347 7.46079 22.4462C7.69663 22.4941 8.51384 21.7707 8.56268 20.6342C8.52779 18.8697 7.4848 18.7628 7.36646 18.7628C7.24784 18.7628 7.03489 18.8697 7.03489 18.8697C7.03489 18.8697 6.76221 21.0372 6.72732 21.4394ZM7.41391 15.7905L7.12922 17.9226C7.12922 17.9226 7.86381 17.6854 8.37234 17.3307C8.77772 17.0473 8.80818 16.6214 8.83352 16.2681C8.83991 16.178 8.84606 16.0926 8.85798 16.0155C8.91685 15.6362 8.68102 14.9376 8.14738 14.9264C7.61402 14.9155 7.41391 15.7905 7.41391 15.7905Z" fill="#1B1B1B" fill-opacity="0.55"/>
</g>
</g>
<defs>
<clipPath id="clip0_15_985">
<rect width="29.2" height="29.99" fill="white" transform="translate(0.816406)"/>
</clipPath>
</defs>
</svg>
