<svg width="92" height="26" viewBox="0 0 92 26" fill="none" xmlns="http://www.w3.org/2000/svg">
<g clip-path="url(#clip0_32_191)">
<mask id="mask0_32_191" style="mask-type:luminance" maskUnits="userSpaceOnUse" x="9" y="4" width="74" height="18">
<path d="M82.8288 4.78571H9.87427V21.2612H82.8288V4.78571Z" fill="white"/>
</mask>
<g mask="url(#mask0_32_191)">
<mask id="mask1_32_191" style="mask-type:luminance" maskUnits="userSpaceOnUse" x="9" y="4" width="74" height="18">
<path d="M82.8288 4.78571H9.87427V21.2612H82.8288V4.78571Z" fill="white"/>
</mask>
<g mask="url(#mask1_32_191)">
<path d="M80.7508 16.9799C80.4767 16.9809 80.2055 17.0359 79.9528 17.1419C79.7 17.2479 79.4706 17.4026 79.2777 17.5973C79.0849 17.7921 78.9322 18.0229 78.8286 18.2766C78.7251 18.5304 78.6726 18.8021 78.674 19.0761C78.6726 19.3502 78.7251 19.6219 78.8286 19.8756C78.9322 20.1294 79.0849 20.3602 79.2777 20.555C79.4706 20.7496 79.7 20.9044 79.9528 21.0103C80.2055 21.1162 80.4767 21.1714 80.7508 21.1724C81.8964 21.1724 82.8276 20.2334 82.8276 19.0761C82.8291 18.8021 82.7766 18.5304 82.673 18.2766C82.5694 18.0229 82.4168 17.7921 82.2239 17.5973C82.0311 17.4026 81.8017 17.2479 81.5489 17.1419C81.2961 17.0359 81.0249 16.9809 80.7508 16.9799ZM73.9166 15.361C73.9166 13.7751 72.5743 12.4913 70.9184 12.4913C69.2625 12.4913 67.9202 13.7771 67.9202 15.361C67.9202 16.9448 69.2644 18.2287 70.9203 18.2287C72.5763 18.2287 73.9166 16.9448 73.9166 15.361ZM73.9283 9.78333H77.2363V20.9366H73.9283V20.2236C72.9638 20.8894 71.8195 21.2454 70.6476 21.2444C67.4273 21.2444 64.8167 18.6105 64.8167 15.361C64.8167 12.1114 67.4273 9.47747 70.6476 9.47747C71.8652 9.47747 72.9932 9.85347 73.9283 10.4983V9.78333ZM47.4488 11.2367V9.78527H44.0609V20.9366H47.4565V15.7291C47.4565 13.9719 49.3424 13.029 50.6515 13.029H50.6905V9.78527C49.3462 9.78527 48.1131 10.3658 47.4488 11.2367ZM39.0093 15.361C39.0093 13.7751 37.667 12.4913 36.011 12.4913C34.355 12.4913 33.0127 13.7771 33.0127 15.361C33.0127 16.9448 34.357 18.2287 36.013 18.2287C37.6689 18.2287 39.0093 16.9448 39.0093 15.361ZM39.0209 9.78333H42.3309V20.9366H39.0209V20.2236C38.0858 20.8665 36.9578 21.2444 35.7402 21.2444C32.5198 21.2444 29.9093 18.6105 29.9093 15.361C29.9093 12.1114 32.5198 9.47747 35.7402 9.47747C36.9578 9.47747 38.0858 9.85347 39.0209 10.4983V9.78333ZM58.9371 9.48526C57.6162 9.48526 56.3655 9.89827 55.5278 11.0399V9.78527H52.2334V20.9366H55.5687V15.0765C55.5687 13.3816 56.6947 12.5498 58.0527 12.5498C59.506 12.5498 60.3437 13.4264 60.3437 15.0532V20.9366H63.6478V13.8452C63.6478 11.2503 61.6022 9.48526 58.9371 9.48526ZM25.0895 20.9366H28.5534V4.81548H25.0895V20.9366ZM9.87427 20.9406H13.5427V4.81158H9.87622L9.87427 20.9406ZM22.705 4.81158C22.705 8.30272 21.3568 11.5523 18.9528 13.966L24.0219 20.9406H19.4924L13.9849 13.3621L15.4071 12.2867C16.5648 11.416 17.5029 10.2865 18.1463 8.98858C18.7897 7.69065 19.1205 6.26021 19.1125 4.81158H22.701H22.705Z" fill="#1B1B1B" fill-opacity="0.55"/>
</g>
</g>
</g>
<defs>
<clipPath id="clip0_32_191">
<rect width="72.9545" height="16.4755" fill="white" transform="translate(9.87427 4.78571)"/>
</clipPath>
</defs>
</svg>
