<svg width="92" height="26" viewBox="0 0 92 26" fill="none" xmlns="http://www.w3.org/2000/svg">
<mask id="mask0_32_271" style="mask-type:luminance" maskUnits="userSpaceOnUse" x="7" y="5" width="78" height="15">
<path d="M84.9735 5.67828H7.6178V19.2038H84.9735V5.67828Z" fill="white"/>
</mask>
<g mask="url(#mask0_32_271)">
<path d="M17.6059 7.9152C17.6059 7.9152 16.0973 6.66669 14.1725 6.66669C14.1725 6.66669 11.8835 6.66669 10.2709 8.33137C10.2709 8.33137 8.65822 9.99605 8.65822 12.285C8.65822 12.285 8.65822 14.5739 10.2709 16.2386C10.2709 16.2386 11.8835 17.8512 14.1725 17.8512C14.1725 17.8512 16.0973 17.8512 17.6059 16.6548L18.3342 17.3831C18.3342 17.3831 16.5134 18.8917 14.1725 18.8917C14.1725 18.8917 11.4674 18.8917 9.54259 16.9149C9.54259 16.9149 7.6178 14.9901 7.6178 12.285C7.6178 12.285 7.6178 9.57988 9.54259 7.65509C9.54259 7.65509 11.4674 5.67828 14.1725 5.67828C14.1725 5.67828 16.5134 5.67828 18.3342 7.13488L17.6059 7.9152Z" fill="#1B1B1B" fill-opacity="0.55"/>
<path d="M22.8599 10.3598C21.0912 10.3598 19.8427 11.6083 19.8427 11.6083C18.5941 12.8568 18.5941 14.6256 18.5941 14.6256C18.5941 16.3942 19.8427 17.6428 19.8427 17.6428C21.0912 18.8913 22.8599 18.8913 22.8599 18.8913C24.8887 18.8913 26.2413 17.1746 26.2413 17.1746V18.6832H27.1777V10.6199H26.2413V12.0245C24.9408 10.3598 22.8599 10.3598 22.8599 10.3598ZM22.8599 11.2962C24.2124 11.2962 25.2009 12.2326 25.2009 12.2326C26.1893 13.221 26.1893 14.6256 26.1893 14.6256C26.1893 15.9781 25.2009 16.9665 25.2009 16.9665C24.2124 17.9549 22.8599 17.9549 22.8599 17.9549C21.4553 17.9549 20.5189 16.9665 20.5189 16.9665C19.5306 15.9781 19.5306 14.6256 19.5306 14.6256C19.5306 13.221 20.5189 12.2326 20.5189 12.2326C21.4553 11.2962 22.8599 11.2962 22.8599 11.2962Z" fill="#1B1B1B" fill-opacity="0.55"/>
<path d="M40.5991 6.92708C40.5991 6.92708 40.0269 6.92708 40.0269 6.35485C40.0269 6.35485 40.0269 5.73059 40.5991 5.73059C40.5991 5.73059 41.2233 5.73059 41.2233 6.35485C41.2233 6.35485 41.2233 6.92708 40.5991 6.92708Z" fill="#1B1B1B" fill-opacity="0.55"/>
<path d="M29.9868 5.73059V18.6839H28.9984V5.73059H29.9868Z" fill="#1B1B1B" fill-opacity="0.55"/>
<path d="M34.929 16.9149L37.7901 10.6204H38.8305L34.929 19.2039L30.9233 10.6204H32.0157L34.929 16.9149Z" fill="#1B1B1B" fill-opacity="0.55"/>
<path d="M43.7718 11.4008C43.7718 11.4008 44.5521 10.3604 46.0606 10.3604C46.0606 10.3604 47.4132 10.3604 48.3496 11.2968C48.3496 11.2968 49.286 12.2332 49.286 13.5857V18.6839H48.3496V13.5857C48.3496 13.5857 48.3496 12.5973 47.6733 11.921C47.6733 11.921 47.0491 11.2448 46.0606 11.2448C46.0606 11.2448 45.1243 11.2448 44.448 11.869C44.448 11.869 43.7718 12.5453 43.7718 13.5857V18.6839H42.8353V10.6205H43.7718V11.4008Z" fill="#1B1B1B" fill-opacity="0.55"/>
<path d="M41.0675 10.6204V18.6837H40.1312V10.6204H41.0675Z" fill="#1B1B1B" fill-opacity="0.55"/>
<path d="M61.7195 5.78261L56.5694 11.3489L61.6675 18.6839H60.471L55.8931 12.0772L54.9568 13.0656V18.6839H54.0203V5.73059H54.9568V11.609L60.367 5.78261H61.7195Z" fill="#1B1B1B" fill-opacity="0.55"/>
<path d="M64.1137 5.73059V18.6839H63.1254V5.73059H64.1137Z" fill="#1B1B1B" fill-opacity="0.55"/>
<path d="M69.8868 10.3598C68.1181 10.3598 66.8696 11.6083 66.8696 11.6083C65.6731 12.8048 65.6731 14.6256 65.6731 14.6256C65.6731 16.3942 66.8696 17.5908 66.8696 17.5908C68.1181 18.8392 69.8868 18.8392 69.8868 18.8392C72.5919 18.8392 73.7364 16.4463 73.7364 16.4463L72.904 16.0821C71.9677 17.9029 69.8868 17.9029 69.8868 17.9029C68.5342 17.9029 67.5979 16.9665 67.5979 16.9665C66.6095 16.0302 66.6095 14.6776 66.6095 14.6776H74.1526V14.6256C74.1526 12.8048 72.904 11.6083 72.904 11.6083C71.6556 10.3598 69.8868 10.3598 69.8868 10.3598ZM69.8868 11.2442C71.0313 11.2442 71.9157 11.9725 71.9157 11.9725C72.8001 12.6487 73.1122 13.6891 73.1122 13.6891H66.7135C67.0257 12.6487 67.858 11.9725 67.858 11.9725C68.7944 11.2442 69.8868 11.2442 69.8868 11.2442Z" fill="#1B1B1B" fill-opacity="0.55"/>
<path d="M75.6095 6.35485C75.6095 6.35485 75.6095 5.73059 76.1817 5.73059C76.1817 5.73059 76.7539 5.73059 76.7539 6.35485C76.7539 6.35485 76.7539 6.92708 76.1817 6.92708C76.1817 6.92708 75.6095 6.92708 75.6095 6.35485Z" fill="#1B1B1B" fill-opacity="0.55"/>
<path d="M79.4586 10.6205V11.4008C79.4586 11.4008 80.1869 10.3604 81.7475 10.3604C81.7475 10.3604 83.1001 10.3604 84.0365 11.2968C84.0365 11.2968 84.9729 12.2332 84.9729 13.5857V18.6839H83.9844V13.5857C83.9844 13.5857 83.9844 12.5973 83.3602 11.921C83.3602 11.921 82.6839 11.2448 81.7475 11.2448C81.7475 11.2448 80.7591 11.2448 80.1348 11.869C80.1348 11.869 79.4586 12.5453 79.4586 13.5857V18.6839H78.4702V10.6205H79.4586Z" fill="#1B1B1B" fill-opacity="0.55"/>
<path d="M76.6502 10.6204V18.6837H75.7138V10.6204H76.6502Z" fill="#1B1B1B" fill-opacity="0.55"/>
</g>
</svg>
