<svg width="92" height="26" viewBox="0 0 92 26" fill="none" xmlns="http://www.w3.org/2000/svg">
<g clip-path="url(#clip0_32_228)">
<mask id="mask0_32_228" style="mask-type:luminance" maskUnits="userSpaceOnUse" x="3" y="3" width="85" height="20">
<path d="M87.7368 3.28802H3.59155V22.1362H87.7368V3.28802Z" fill="white"/>
</mask>
<g mask="url(#mask0_32_228)">
<path d="M58.1968 10.1514C56.778 8.91038 55.0654 8.30384 53.0846 8.30384C51.1316 8.30384 49.4189 8.91145 47.999 10.1514C46.5802 11.3654 45.8595 13.0553 45.8595 15.2201C45.8595 17.3847 46.5802 19.0737 47.999 20.3146C49.4179 21.5287 51.1316 22.1362 53.0846 22.1362C55.0654 22.1362 56.778 21.5287 58.1968 20.3146C59.6425 19.0737 60.3642 17.3847 60.3642 15.2199C60.3642 13.0552 59.6414 11.3654 58.1968 10.1514ZM50.4099 17.9912C49.6613 17.279 49.2849 16.3544 49.2849 15.2201C49.2849 14.0848 49.6581 13.1611 50.4099 12.4747C51.1585 11.7625 52.0421 11.4193 53.0835 11.4193C54.1259 11.4193 55.0364 11.7625 55.786 12.4747C56.5603 13.1611 56.9378 14.0848 56.9378 15.2201C56.9378 16.3553 56.5635 17.279 55.786 17.9912C55.0374 18.6776 54.127 19.0208 53.0835 19.0208C52.0421 19.0208 51.1595 18.6776 50.4099 17.9912ZM65.424 21.7657V3.65188H62.0522V21.7657H65.424ZM76.3082 8.67272V15.9002C76.3082 17.6418 75.3537 18.7961 73.537 18.7961C71.6902 18.7961 70.7615 17.6428 70.7615 15.9002V8.67272H67.3834V16.4547C67.3834 19.4694 69.3094 22.1349 73.537 22.1349H73.5627C77.7645 22.1349 79.6885 19.4106 79.6885 16.4547V8.67272H76.3082ZM42.2701 8.67272L38.8984 17.5421L35.5255 8.67272H31.9404L37.3208 21.7658H40.4791L45.8584 8.67272H42.2701ZM31.9575 14.8499C31.9575 12.9495 31.342 11.3923 30.1376 10.1514C28.9333 8.91038 27.3825 8.30384 25.4822 8.30384C23.5293 8.30384 21.8691 8.96429 20.5039 10.2571C19.1644 11.551 18.4973 13.1869 18.4973 15.2201C18.4973 17.2531 19.1655 18.9161 20.4771 20.2089C21.8166 21.5027 23.422 22.1362 25.3213 22.1362C28.2404 22.1362 30.3006 20.8694 31.5554 18.3084L29.0405 16.883C28.2126 18.4931 27.0071 19.285 25.3749 19.285C23.3683 19.285 21.9495 18.0183 21.7351 16.012H31.9564V14.8499H31.9575ZM25.3728 10.8377C27.2731 10.8377 28.5322 11.8932 28.8517 13.5831H21.734C22.2434 12.0259 23.6333 10.8377 25.3728 10.8377ZM18.4973 21.7659L13.9728 13.953C16.8351 12.9235 18.254 11.1288 18.254 8.51523C18.2572 5.32104 15.6854 3.28802 11.5919 3.28802H3.59155V21.7659H7.12417V14.2692H10.1227L14.4565 21.7659H18.4973ZM11.5919 6.34951C13.6789 6.34951 14.7235 7.16743 14.7235 8.77755C14.7235 10.3877 13.6779 11.2057 11.5919 11.2057H7.12417V6.34951H11.5919ZM85.4047 22.135C83.234 22.135 81.4741 20.3982 81.4741 18.2544V5.13559H84.8456V8.67784H87.7372V11.3702H84.8456V18.041C84.8456 18.6695 85.3615 19.1781 86 19.1781H87.7372V22.135H85.4047Z" fill="#1B1B1B" fill-opacity="0.55"/>
</g>
</g>
<defs>
<clipPath id="clip0_32_228">
<rect width="84.1453" height="18.8482" fill="white" transform="translate(3.59155 3.28802)"/>
</clipPath>
</defs>
</svg>
