<svg width="92" height="26" viewBox="0 0 92 26" fill="none" xmlns="http://www.w3.org/2000/svg">
<mask id="mask0_32_258" style="mask-type:luminance" maskUnits="userSpaceOnUse" x="6" y="1" width="80" height="23">
<path d="M85.525 1.59186H6.51367V23.741H85.525V1.59186Z" fill="white"/>
</mask>
<g mask="url(#mask0_32_258)">
<path d="M25.0684 16.7691L25.0573 16.7327L32.0826 10.0794V6.87372H20.8117V10.0794H27.5438L27.5548 10.1101L20.5983 16.7691V19.9749H32.1957V16.7691H25.0684Z" fill="#1B1B1B" fill-opacity="0.55"/>
<path d="M39.1132 6.5683C37.8131 6.5683 36.7536 6.77114 35.9345 7.17681C35.1718 7.53035 34.5291 8.11285 34.0901 8.84872C33.6702 9.58953 33.4065 10.4137 33.3164 11.2674L36.7362 11.7646C36.8599 11.0108 37.1074 10.4766 37.4784 10.1617C37.9004 9.83252 38.4202 9.66611 38.948 9.69147C39.6421 9.69147 40.1455 9.88341 40.4586 10.2673C40.7685 10.6512 40.9261 11.183 40.9261 11.8836V12.233H37.638C35.9643 12.233 34.7618 12.6169 34.0308 13.3847C33.2997 14.1525 32.9347 15.1661 32.936 16.4253C32.936 17.7153 33.3009 18.6751 34.0308 19.3046C34.7606 19.9343 35.6785 20.2472 36.7845 20.2433C38.1563 20.2433 39.2116 19.7551 39.9501 18.7787C40.3862 18.1786 40.6976 17.4918 40.8649 16.7613H40.9892L41.4606 19.9669H44.5594V11.849C44.5594 10.1713 44.132 8.87181 43.2772 7.95041C42.4223 7.02902 41.0344 6.5683 39.1132 6.5683ZM40.1969 16.5751C39.7051 16.9992 39.0613 17.2104 38.2597 17.2104C37.599 17.2104 37.1401 17.0908 36.8828 16.8514C36.7575 16.7383 36.6577 16.5978 36.5906 16.4403C36.5236 16.2827 36.4909 16.1118 36.4951 15.9396C36.4876 15.7773 36.5125 15.6152 36.5676 15.463C36.6227 15.3109 36.7073 15.172 36.816 15.0547C36.9336 14.9406 37.0723 14.8524 37.2239 14.7953C37.3754 14.7382 37.5364 14.7135 37.6974 14.7227H40.9317V14.9434C40.9384 15.2555 40.8754 15.5649 40.748 15.8478C40.6206 16.1306 40.432 16.3795 40.1969 16.5751Z" fill="#1B1B1B" fill-opacity="0.55"/>
<path d="M63.2953 6.87372H59.6343V19.9767H63.2953V6.87372Z" fill="#1B1B1B" fill-opacity="0.55"/>
<path d="M84.9104 6.87372C83.8764 6.87372 83.0611 7.25122 82.4651 8.00627C82.037 8.54886 81.7113 9.35062 81.4887 10.4115H81.381L80.9024 6.87372H77.7756V19.9749H81.4368V13.2563C81.4368 12.4091 81.6285 11.7597 82.0119 11.3079C82.3953 10.8562 83.1028 10.6303 84.1345 10.6303H85.5246V6.87372H84.9104Z" fill="#1B1B1B" fill-opacity="0.55"/>
<path d="M74.1456 7.3018C73.2909 6.77585 72.2128 6.5135 70.9113 6.51478C68.8629 6.51478 67.2595 7.11817 66.1017 8.32494C64.9437 9.5317 64.3649 11.1954 64.3649 13.3159C64.3353 14.5979 64.6059 15.8682 65.1535 17.0187C65.6547 18.0438 66.4353 18.8948 67.3988 19.4661C68.3686 20.0459 69.5221 20.3364 70.8593 20.3375C72.0161 20.3375 72.9822 20.1533 73.7578 19.7849C74.4871 19.4538 75.122 18.935 75.6023 18.278C76.0596 17.6329 76.3992 16.9069 76.6043 16.1357L73.4498 15.222C73.317 15.7235 73.0614 16.181 72.7076 16.5503C72.3512 16.9188 71.7544 17.1032 70.9169 17.1032C69.9212 17.1032 69.1789 16.8082 68.6902 16.2182C68.3359 15.792 68.1132 15.1836 68.0147 14.3946H76.6526C76.6879 14.026 76.7063 13.717 76.7063 13.4674V12.6516C76.7272 11.5557 76.5083 10.469 76.0662 9.47288C75.6523 8.56538 74.9828 7.80859 74.1456 7.3018ZM70.8056 9.63788C72.29 9.63788 73.1319 10.3936 73.3309 11.9049H68.0797C68.1632 11.4007 68.3651 10.9254 68.668 10.5209C69.1492 9.93097 69.8617 9.63662 70.8056 9.63788Z" fill="#1B1B1B" fill-opacity="0.55"/>
<path d="M61.5049 1.59309C61.2294 1.5834 60.9549 1.63108 60.6977 1.7333C60.4404 1.83553 60.2057 1.9902 60.0074 2.18814C59.8119 2.38798 59.6587 2.62768 59.5574 2.89203C59.456 3.15639 59.409 3.43962 59.4192 3.72378C59.4093 4.00978 59.4566 4.29481 59.5578 4.56109C59.6593 4.82738 59.8125 5.06921 60.0082 5.27147C60.204 5.47374 60.4379 5.63211 60.6953 5.73671C60.9529 5.84132 61.2285 5.8899 61.5049 5.87944C61.7795 5.89018 62.0535 5.84161 62.309 5.73684C62.5645 5.63209 62.7962 5.47341 62.9893 5.27093C63.1808 5.06636 63.3303 4.82385 63.4287 4.55796C63.5273 4.29208 63.5729 4.00834 63.5626 3.72378C63.5753 3.44091 63.5308 3.15841 63.4319 2.89433C63.3332 2.63026 63.1822 2.3904 62.9888 2.19007C62.7952 1.98975 62.5636 1.83336 62.3084 1.7309C62.0531 1.62844 61.7801 1.58216 61.5067 1.59501L61.5049 1.59309Z" fill="#1B1B1B" fill-opacity="0.55"/>
<path d="M53.9435 6.51477C52.6967 6.51477 51.6947 6.91979 50.9376 7.72984C50.3771 8.33003 49.9659 9.2258 49.7036 10.4172H49.5866L49.108 6.87947H45.9812V23.741H49.6423V16.796H49.7759C49.8877 17.2591 50.0443 17.7093 50.2435 18.1397C50.5533 18.8408 51.0611 19.4285 51.7002 19.8251C52.3628 20.1991 53.1091 20.3853 53.8637 20.3645C55.3966 20.3645 56.5637 19.7471 57.3654 18.5121C58.1668 17.2772 58.5677 15.554 58.5677 13.3427C58.5677 11.2068 58.18 9.53491 57.4042 8.32684C56.6286 7.1188 55.4751 6.51477 53.9435 6.51477ZM54.3147 16.0089C53.8879 16.6488 53.2199 16.9688 52.3106 16.9688C51.9358 16.9866 51.5621 16.9119 51.2208 16.7507C50.8792 16.5894 50.58 16.3463 50.3475 16.0416C49.8737 15.4261 49.6374 14.5834 49.6386 13.5135V13.2639C49.6386 12.1775 49.8749 11.3457 50.3475 10.7685C50.82 10.1914 51.4744 9.90599 52.3106 9.91243C53.2361 9.91243 53.9083 10.2164 54.3277 10.8242C54.747 11.4321 54.9568 12.2799 54.9568 13.3676C54.9593 14.4925 54.7464 15.3729 54.3183 16.0089H54.3147Z" fill="#1B1B1B" fill-opacity="0.55"/>
<path d="M19.1799 16.7693H6.51367V19.979H19.1799V16.7693Z" fill="#1B1B1B" fill-opacity="0.55"/>
</g>
</svg>
