<svg width="92" height="26" viewBox="0 0 92 26" fill="none" xmlns="http://www.w3.org/2000/svg">
<g clip-path="url(#clip0_32_202)">
<mask id="mask0_32_202" style="mask-type:luminance" maskUnits="userSpaceOnUse" x="27" y="1" width="41" height="23">
<path d="M67.4378 1.388H27.1237V23.3775H67.4378V1.388Z" fill="white"/>
</mask>
<g mask="url(#mask0_32_202)">
<mask id="mask1_32_202" style="mask-type:luminance" maskUnits="userSpaceOnUse" x="27" y="1" width="41" height="23">
<path d="M67.4378 1.388H27.1237V23.3775H67.4378V1.388Z" fill="white"/>
</mask>
<g mask="url(#mask1_32_202)">
<path d="M34.5469 3.48557C35.8073 2.16146 37.4791 1.388 39.4432 1.388C43.2695 1.388 45.8063 4.18164 46.2916 8.36672C46.449 9.7258 46.4475 11.642 46.4459 13.8612C46.4458 14.0888 46.4456 14.3197 46.4456 14.5534V22.8675H41.1837V16.7182C41.1837 16.7182 41.1731 11.4551 41.1409 10.4716C40.9997 6.18755 38.4636 3.49571 34.5464 3.49281C33.3645 4.74144 32.7313 6.26811 32.6379 8.60242C32.6251 8.92801 32.6283 10.082 32.6326 11.603C32.6348 12.3911 32.6372 13.2777 32.6379 14.1985C32.6418 18.2068 32.6379 22.8684 32.6379 22.8684H27.3761V13.4046C27.3761 13.0803 27.3702 12.7533 27.3643 12.4249C27.3523 11.7645 27.3403 11.099 27.3761 10.44C27.4356 9.34138 27.6256 8.26145 28.1382 7.25818C29.3116 4.95978 31.7159 3.47993 34.2791 3.47993C34.3687 3.47993 34.4582 3.48181 34.5469 3.48557Z" fill="#1B1B1B" fill-opacity="0.55"/>
<path d="M67.1853 14.3257C67.2211 13.6667 67.2091 13.0011 67.1972 12.3407C67.1913 12.0124 67.1853 11.6854 67.1853 11.3611V1.89726H61.9236C61.9236 1.89726 61.9197 6.55891 61.9236 10.5671C61.9242 11.488 61.9267 12.3745 61.9289 13.1626C61.9331 14.6836 61.9363 15.8376 61.9236 16.1632C61.8302 18.4976 61.1969 20.0242 60.0151 21.2728C56.098 21.2699 53.5619 18.578 53.4206 14.2942C53.3884 13.3105 53.3748 10.8696 53.3748 8.04261V1.89325L48.117 1.89816V10.2123C48.117 10.446 48.1168 10.6767 48.1166 10.9044C48.1149 13.1238 48.1136 15.0398 48.2709 16.3989C48.7552 20.584 51.2921 23.3777 55.1184 23.3777C57.0825 23.3777 58.7543 22.6042 60.0147 21.2801C60.1032 21.2838 60.1928 21.2857 60.2823 21.2857C62.8455 21.2857 65.2498 19.8059 66.4233 17.5075C66.9359 16.5042 67.1259 15.4243 67.1853 14.3257Z" fill="#1B1B1B" fill-opacity="0.55"/>
</g>
</g>
</g>
<defs>
<clipPath id="clip0_32_202">
<rect width="41.623" height="21.9895" fill="white" transform="translate(26.5163 1.388)"/>
</clipPath>
</defs>
</svg>
