<svg width="92" height="26" viewBox="0 0 92 26" fill="none" xmlns="http://www.w3.org/2000/svg">
<g clip-path="url(#clip0_32_214)">
<g clip-path="url(#clip1_32_214)">
<mask id="mask0_32_214" style="mask-type:luminance" maskUnits="userSpaceOnUse" x="11" y="0" width="69" height="25">
<path d="M79.7502 0.989929H11.3456V24.5501H79.7502V0.989929Z" fill="white"/>
</mask>
<g mask="url(#mask0_32_214)">
<path d="M73.1136 10.5915C73.9365 10.5915 74.6037 9.92434 74.6037 9.10138C74.6037 8.27847 73.9365 7.61133 73.1136 7.61133C72.2907 7.61133 71.6235 8.27847 71.6235 9.10138C71.6235 9.92434 72.2907 10.5915 73.1136 10.5915Z" fill="#1B1B1B" fill-opacity="0.55"/>
<path d="M51.8311 15.4551C52.562 15.4551 52.9837 14.9069 52.9556 14.3727C52.9416 14.0915 52.9135 13.9088 52.8853 13.7682C52.4355 11.8283 50.8611 10.3945 48.9915 10.3945C46.7704 10.3945 44.9711 12.4047 44.9711 14.8788C44.9711 17.3529 46.7704 19.3631 48.9915 19.3631C50.3832 19.3631 51.3813 18.8571 52.0981 18.0558C52.4496 17.6622 52.3793 17.0577 51.9576 16.7625C51.6062 16.5235 51.1704 16.6078 50.8471 16.8749C50.5378 17.142 49.9474 17.6762 48.9915 17.6762C47.8669 17.6762 46.9109 16.7063 46.7001 15.427H51.8311V15.4551ZM48.9774 12.0954C49.9895 12.0954 50.8611 12.8827 51.1844 13.965H46.7704C47.0937 12.8686 47.9653 12.0954 48.9774 12.0954Z" fill="#1B1B1B" fill-opacity="0.55"/>
<path d="M45.0547 11.2803C45.0547 10.8586 44.7454 10.5212 44.3519 10.4509C43.1289 10.2682 41.9762 10.718 41.3155 11.5474V11.4349C41.3155 10.9148 40.8937 10.5915 40.472 10.5915C40.0081 10.5915 39.6285 10.971 39.6285 11.4349V18.3231C39.6285 18.7729 39.9659 19.1665 40.4158 19.1947C40.9078 19.2228 41.3155 18.8432 41.3155 18.3512V14.7947C41.3155 13.2203 42.4963 11.927 44.127 12.1097C44.1832 12.1097 44.2394 12.1097 44.2957 12.1097C44.7174 12.0816 45.0547 11.7161 45.0547 11.2803Z" fill="#1B1B1B" fill-opacity="0.55"/>
<path d="M73.9578 12.1802C73.9578 11.7163 73.5782 11.3368 73.1143 11.3368C72.6504 11.3368 72.2709 11.7163 72.2709 12.1802C72.2709 12.2084 72.2709 18.0844 72.2709 18.3515C72.2709 18.8154 72.6504 19.1949 73.1143 19.1949C73.5782 19.1949 73.9578 18.8154 73.9578 18.3515C73.9578 18.0984 73.9578 12.2224 73.9578 12.1802Z" fill="#1B1B1B" fill-opacity="0.55"/>
<path d="M61.4173 7.513C61.4173 7.0491 61.0378 6.66956 60.5739 6.66956C60.11 6.66956 59.7304 7.0491 59.7304 7.513V11.2663C59.154 10.69 58.4371 10.4088 57.5797 10.4088C55.3586 10.4088 53.5592 12.4191 53.5592 14.8931C53.5592 17.3673 55.3586 19.3774 57.5797 19.3774C58.4371 19.3774 59.1681 19.0822 59.7445 18.5059C59.8148 18.8995 60.1662 19.1947 60.5739 19.1947C61.0378 19.1947 61.4173 18.8151 61.4173 18.3513V7.513ZM57.5937 17.7046C56.3004 17.7046 55.2602 16.4535 55.2602 14.8931C55.2602 13.3468 56.3004 12.0817 57.5937 12.0817C58.887 12.0817 59.9272 13.3327 59.9272 14.8931C59.9272 16.4535 58.8729 17.7046 57.5937 17.7046Z" fill="#1B1B1B" fill-opacity="0.55"/>
<path d="M70.2171 7.513C70.2171 7.0491 69.8376 6.66956 69.3737 6.66956C68.9098 6.66956 68.5302 7.0491 68.5302 7.513V11.2663C67.9539 10.69 67.2369 10.4088 66.3794 10.4088C64.1584 10.4088 62.359 12.4191 62.359 14.8931C62.359 17.3673 64.1584 19.3774 66.3794 19.3774C67.2369 19.3774 67.9679 19.0822 68.5443 18.5059C68.6146 18.8995 68.966 19.1947 69.3737 19.1947C69.8376 19.1947 70.2171 18.8151 70.2171 18.3513V7.513ZM66.3794 17.7046C65.0862 17.7046 64.0459 16.4535 64.0459 14.8931C64.0459 13.3468 65.0862 12.0817 66.3794 12.0817C67.6727 12.0817 68.713 13.3327 68.713 14.8931C68.713 16.4535 67.6727 17.7046 66.3794 17.7046Z" fill="#1B1B1B" fill-opacity="0.55"/>
<path d="M78.23 18.3652V12.0956H78.9751C79.3687 12.0956 79.7201 11.8004 79.7482 11.3927C79.7763 10.9569 79.4249 10.5915 79.0032 10.5915H78.23V9.41064C78.23 8.9608 77.8927 8.56717 77.4429 8.53906C76.9508 8.51095 76.5432 8.89051 76.5432 9.38253V10.6055H75.8403C75.4467 10.6055 75.0952 10.9007 75.0671 11.3083C75.039 11.7441 75.3905 12.1096 75.8122 12.1096H76.5291V18.3792C76.5291 18.8431 76.9087 19.2227 77.3726 19.2227C77.8646 19.1946 78.23 18.8291 78.23 18.3652Z" fill="#1B1B1B" fill-opacity="0.55"/>
<path fill-rule="evenodd" clip-rule="evenodd" d="M34.9058 12.77C34.9058 19.276 29.6316 24.5501 23.1257 24.5501C16.6197 24.5501 11.3456 19.276 11.3456 12.77C11.3456 6.26406 16.6197 0.989929 23.1257 0.989929C29.6316 0.989929 34.9058 6.26406 34.9058 12.77ZM29.2684 11.0552C30.2103 11.0552 30.9834 11.8144 30.9834 12.7703C30.9834 13.4731 30.5617 14.0776 29.9713 14.3447C29.9994 14.5134 30.0135 14.6962 30.0135 14.8649C30.0135 17.5217 26.9348 19.6584 23.1394 19.6584C19.3438 19.6584 16.2653 17.5076 16.2653 14.8649C16.2653 14.6821 16.2793 14.5134 16.3075 14.3447C15.7171 14.0776 15.2953 13.4872 15.2953 12.7843C15.2953 11.8425 16.0544 11.0693 17.0103 11.0693C17.4742 11.0693 17.8959 11.252 18.2052 11.5473C19.4001 10.6897 21.0448 10.1415 22.8723 10.0853L23.7439 5.98055C23.7579 5.8962 23.8001 5.82591 23.8704 5.78374C23.9266 5.74157 24.0109 5.72751 24.0953 5.74157L26.9489 6.34604C27.1457 5.93837 27.5674 5.65722 28.0454 5.65722C28.7202 5.65722 29.2684 6.20546 29.2684 6.88022C29.2684 7.55497 28.7202 8.10321 28.0454 8.10321C27.3847 8.10321 26.8505 7.58309 26.8224 6.93645L24.264 6.38821L23.4768 10.0712C25.2761 10.1415 26.8927 10.6897 28.0735 11.5332C28.3828 11.238 28.8045 11.0552 29.2684 11.0552ZM20.4263 12.7703C19.7515 12.7703 19.2033 13.3185 19.2033 13.9933C19.2033 14.668 19.7515 15.2303 20.4263 15.2163C21.101 15.2163 21.6493 14.668 21.6493 13.9933C21.6493 13.3185 21.101 12.7703 20.4263 12.7703ZM23.1394 18.1402C23.6033 18.1402 25.2058 18.084 26.0492 17.2405C26.1617 17.114 26.1617 16.9172 26.0492 16.7907C25.9227 16.6641 25.7259 16.6641 25.5994 16.7907C25.0793 17.3249 23.9407 17.5076 23.1394 17.5076C22.3381 17.5076 21.2135 17.3249 20.6793 16.7907C20.5528 16.6641 20.356 16.6641 20.2295 16.7907C20.1029 16.9172 20.1029 17.114 20.2295 17.2405C21.0589 18.0699 22.6614 18.1402 23.1394 18.1402ZM24.6014 14.0073C24.6014 14.6821 25.1496 15.2303 25.8243 15.2303C26.4991 15.2303 27.0473 14.668 27.0473 14.0073C27.0473 13.3326 26.4991 12.7843 25.8243 12.7843C25.1496 12.7843 24.6014 13.3326 24.6014 14.0073Z" fill="#1B1B1B" fill-opacity="0.55"/>
</g>
</g>
</g>
<defs>
<clipPath id="clip0_32_214">
<rect width="91.0995" height="25.1309" fill="white" transform="translate(0.35083 0.20459)"/>
</clipPath>
<clipPath id="clip1_32_214">
<rect width="68.4046" height="23.5602" fill="white" transform="translate(11.3456 0.989929)"/>
</clipPath>
</defs>
</svg>
