<svg width="92" height="26" viewBox="0 0 92 26" fill="none" xmlns="http://www.w3.org/2000/svg">
<mask id="mask0_32_235" style="mask-type:luminance" maskUnits="userSpaceOnUse" x="6" y="2" width="81" height="21">
<path d="M86.2014 2.50269H6.62299V22.7984H86.2014V2.50269Z" fill="white"/>
</mask>
<g mask="url(#mask0_32_235)">
<path d="M24.0238 2.50269H9.1027C7.72345 2.50269 6.62299 3.63856 6.62299 5.03451V20.2666C6.62299 21.6625 7.73712 22.7984 9.1027 22.7984H24.0111C25.3903 22.7984 26.4909 21.6625 26.4909 20.2666V5.04821C26.5046 3.63856 25.3903 2.50269 24.0238 2.50269ZM19.2092 6.22518C19.2092 5.85563 19.5017 5.55456 19.8724 5.55456C20.2441 5.55456 20.5357 5.85563 20.5357 6.22518V15.2713C20.5357 15.6409 20.2441 15.9419 19.8724 15.9419C19.5017 15.9419 19.2092 15.6409 19.2092 15.2713V6.22518ZM15.9069 5.88303C15.9069 5.51347 16.1984 5.2124 16.5701 5.2124C16.9418 5.2124 17.2333 5.51347 17.2333 5.88303V15.6956C17.2333 16.0651 16.9418 16.3662 16.5701 16.3662C16.1984 16.3662 15.9069 16.0651 15.9069 15.6956V5.88303ZM12.5909 6.22518C12.5909 5.85563 12.8833 5.55456 13.2541 5.55456C13.6258 5.55456 13.9173 5.85563 13.9173 6.22518V15.2713C13.9173 15.6409 13.6258 15.9419 13.2541 15.9419C12.8833 15.9419 12.5909 15.6409 12.5909 15.2713V6.22518ZM9.27579 7.58004C9.27579 7.21049 9.5673 6.90942 9.93899 6.90942C10.3098 6.90942 10.6013 7.21049 10.6013 7.58004V13.6701C10.6013 14.0397 10.3098 14.3407 9.93899 14.3407C9.5673 14.3407 9.27579 14.0397 9.27579 13.6701V7.58004ZM23.6257 17.8989C23.5201 17.9947 21.0658 20.0886 16.5701 20.0886C12.0744 20.0886 9.62014 17.9811 9.51447 17.8989C9.2357 17.6526 9.20928 17.2284 9.44796 16.941C9.68664 16.6536 10.0975 16.6262 10.3763 16.8726C10.4164 16.9 12.6046 18.7475 16.5701 18.7475C20.5885 18.7475 22.7503 16.9 22.7639 16.8862C23.0427 16.6399 23.4536 16.6809 23.6923 16.9546C23.931 17.2284 23.9045 17.6663 23.6257 17.8989ZM23.8517 13.6701C23.8517 14.0397 23.5602 14.3407 23.1885 14.3407C22.8169 14.3407 22.5253 14.0397 22.5253 13.6701V7.58004C22.5253 7.21049 22.8169 6.90942 23.1885 6.90942C23.5602 6.90942 23.8517 7.21049 23.8517 7.58004V13.6701Z" fill="#1B1B1B" fill-opacity="0.55"/>
<path d="M34.2094 15.5854C34.2094 15.9275 33.958 16.2013 33.6 16.2013C33.2547 16.2013 33.0024 15.9275 33.0024 15.5854V9.70056C33.0024 9.35849 33.2547 9.08472 33.6127 9.08472C33.958 9.08472 34.2094 9.35849 34.2094 9.70056V15.5854Z" fill="#1B1B1B" fill-opacity="0.55"/>
<path d="M42.008 9.70161V15.08C42.008 15.8054 41.6363 16.2159 41.0268 16.2159H40.9731C40.4028 16.2159 40.1377 15.8738 39.8863 15.3811L38.6655 12.9451L37.5915 10.4269L37.6179 12.863L37.6316 15.5864C37.6316 15.9284 37.3792 16.2022 37.0212 16.2022C36.6759 16.2022 36.4245 15.9284 36.4245 15.5864V10.208C36.4245 9.53733 36.7953 9.07208 37.4585 9.07208H37.5122C38.1217 9.07208 38.374 9.41415 38.6127 9.90689L39.8061 12.3292L40.8273 14.6831L40.8009 12.425L40.7882 9.70161C40.7882 9.35945 41.0396 9.08568 41.3976 9.08568C41.7556 9.08568 42.008 9.37315 42.008 9.70161Z" fill="#1B1B1B" fill-opacity="0.55"/>
<path d="M46.8352 15.5854C46.8352 15.9276 46.5837 16.2012 46.2257 16.2012C45.8804 16.2012 45.629 15.9276 45.629 15.5854V10.2618H44.1295C43.8243 10.2618 43.5728 10.0291 43.5728 9.67325C43.5728 9.33118 43.8243 9.09851 44.1295 9.09851H48.3347C48.6389 9.09851 48.8913 9.33118 48.8913 9.68695C48.8913 10.0291 48.6389 10.2618 48.3347 10.2618H46.8352V15.5854Z" fill="#1B1B1B" fill-opacity="0.55"/>
<path d="M50.4723 15.3804V9.85141C50.4723 9.33137 50.7501 9.0439 51.2676 9.0576H54.7421C55.0473 9.0576 55.2996 9.30397 55.2996 9.64613C55.2996 9.9882 55.0473 10.2209 54.7421 10.2209H51.6657V11.9316H54.3713C54.6765 11.9316 54.9152 12.1642 54.9152 12.4927C54.9152 12.8211 54.6765 13.0538 54.3713 13.0538H51.6657V15.0244H54.7294C55.0345 15.0244 55.286 15.2708 55.286 15.613C55.286 15.9552 55.0345 16.1878 54.7294 16.1878H51.2275C50.7374 16.2014 50.445 15.9141 50.4723 15.3804Z" fill="#1B1B1B" fill-opacity="0.55"/>
<path d="M62.154 15.3941C62.3134 15.6815 62.2077 16.051 61.8761 16.2289C61.5445 16.3931 61.1856 16.2699 61.0271 15.9826L59.687 13.4234H58.4143L58.4271 15.5994C58.4271 15.9416 58.1757 16.2152 57.8167 16.2152C57.4724 16.2152 57.22 15.9416 57.22 15.5994V9.86511C57.22 9.34507 57.4988 9.05769 58.0162 9.07139H60.2837C61.8625 9.07139 62.512 10.1252 62.512 11.2063C62.512 12.2328 61.929 12.9855 60.9342 13.1907L62.154 15.3941ZM58.4007 12.3011H60.311C60.9606 12.3011 61.2922 11.8769 61.2922 11.2611C61.2922 10.6589 60.9342 10.2347 60.2974 10.2347H58.4007V12.3011Z" fill="#1B1B1B" fill-opacity="0.55"/>
<path d="M65.0052 15.6681C64.2755 14.9975 63.9575 13.9574 63.9575 12.6436C63.9575 11.3161 64.2755 10.2897 64.9915 9.63275C65.4297 9.23589 66.0401 8.96222 66.9019 8.96222C67.6707 8.96222 68.2547 9.1401 68.692 9.52326C69.0773 9.83803 69.3552 10.2897 69.5283 10.9192C69.6203 11.2477 69.3952 11.5762 69.0236 11.6446C68.6792 11.6993 68.4004 11.4804 68.2948 11.1519C68.1754 10.8371 68.0288 10.6045 67.8438 10.4403C67.5915 10.2076 67.2863 10.1118 66.8754 10.1118C66.4372 10.1118 66.0665 10.235 65.7877 10.5361C65.3768 10.9603 65.2038 11.6993 65.2038 12.6436C65.2038 13.5742 65.3632 14.327 65.7877 14.7512C66.0665 15.0386 66.4372 15.1755 66.8618 15.1755C67.3 15.1755 67.6443 15.0522 67.9231 14.7922C68.0688 14.6554 68.1882 14.4775 68.2811 14.2584C68.4004 13.9437 68.6655 13.7247 69.0108 13.8069C69.3424 13.889 69.5547 14.2312 69.4481 14.5596C69.2759 15.107 68.9707 15.5449 68.5726 15.846C68.1353 16.1744 67.5778 16.3387 66.8882 16.3387C65.9863 16.325 65.4297 16.0513 65.0052 15.6681Z" fill="#1B1B1B" fill-opacity="0.55"/>
<path d="M70.8819 12.6436C70.8819 10.4128 71.7701 8.96222 73.8663 8.96222C75.9352 8.96222 76.8371 10.3718 76.8371 12.6436C76.8371 14.9428 75.9352 16.325 73.8663 16.325C71.7574 16.325 70.8819 14.9428 70.8819 12.6436ZM75.6036 12.6436C75.6036 10.9466 75.0069 10.1255 73.8527 10.1255C72.7258 10.1255 72.1281 10.9466 72.1281 12.6436C72.1281 14.3406 72.7121 15.1617 73.8527 15.1617C74.9932 15.1617 75.6036 14.3406 75.6036 12.6436Z" fill="#1B1B1B" fill-opacity="0.55"/>
<path d="M86.2011 15.5856C86.2011 15.9278 85.949 16.2015 85.5907 16.2015C85.246 16.2015 84.994 15.9278 84.994 15.5856V12.9169L85.0206 10.3167L84.1847 12.958L83.336 15.5582C83.1902 16.0098 82.8987 16.2015 82.513 16.2015C82.116 16.2015 81.8237 16.0098 81.6779 15.5582L80.8024 12.9717L80.0071 10.3713L80.0335 12.9306V15.5993C80.0335 15.9414 79.7812 16.2151 79.4232 16.2151C79.0788 16.2151 78.8265 15.9414 78.8265 15.5993V10.2756C78.8265 9.53656 79.2109 9.1123 79.8878 9.1123C80.5246 9.1123 80.8826 9.45446 81.0812 10.0977L81.9703 12.8211L82.513 14.6686L83.0574 12.8211L83.9463 10.0977C84.1452 9.45446 84.4899 9.1123 85.1397 9.1123C85.8169 9.1123 86.1874 9.53656 86.1874 10.2756L86.2011 15.5856Z" fill="#1B1B1B" fill-opacity="0.55"/>
</g>
</svg>
