<svg width="92" height="26" viewBox="0 0 92 26" fill="none" xmlns="http://www.w3.org/2000/svg">
<g clip-path="url(#clip0_32_175)">
<mask id="mask0_32_175" style="mask-type:luminance" maskUnits="userSpaceOnUse" x="6" y="1" width="80" height="24">
<path d="M85.6199 1.64435H6.63354V24.1629H85.6199V1.64435Z" fill="white"/>
</mask>
<g mask="url(#mask0_32_175)">
<path d="M33.9129 14.144C33.2403 13.7723 32.8862 13.4714 32.8862 13.0465C32.8862 12.4978 33.3641 12.1615 34.1254 12.1615C35.0104 12.1615 35.7893 12.5332 35.7893 12.5332L36.4089 10.6391C36.4089 10.6391 35.8424 10.1965 34.1608 10.1965C31.8241 10.1965 30.1955 11.5419 30.1955 13.4183C30.1955 14.4804 30.9567 15.2947 31.9657 15.8789C32.78 16.3392 33.0633 16.6754 33.0633 17.1534C33.0633 17.6668 32.6561 18.0739 31.8949 18.0739C30.762 18.0739 29.6999 17.4898 29.6999 17.4898L29.0449 19.3839C29.0449 19.3839 30.0362 20.0389 31.6825 20.0389C34.0899 20.0389 35.807 18.8528 35.807 16.7286C35.8424 15.5603 34.9574 14.7459 33.9129 14.144Z" fill="#1B1B1B" fill-opacity="0.55"/>
<path d="M43.5075 10.161C42.3215 10.161 41.401 10.7274 40.6752 11.5771L40.6398 11.5594L41.6665 6.17798H38.9758L36.3737 19.8616H39.0466L39.9317 15.1883C40.2858 13.4181 41.1886 12.3383 42.0382 12.3383C42.6401 12.3383 42.8702 12.7454 42.8702 13.3296C42.8702 13.7014 42.8349 14.1439 42.7464 14.5157L41.7374 19.8794H44.4104L45.4547 14.3563C45.5786 13.7722 45.6495 13.0818 45.6495 12.6038C45.6849 11.0637 44.906 10.161 43.5075 10.161Z" fill="#1B1B1B" fill-opacity="0.55"/>
<path d="M51.7382 10.1611C48.5164 10.1611 46.3745 13.0642 46.3745 16.3037C46.3745 18.3749 47.649 20.0565 50.0565 20.0565C53.2251 20.0565 55.3494 17.2242 55.3494 13.9139C55.3671 11.9844 54.2519 10.1611 51.7382 10.1611ZM50.4282 17.9854C49.5077 17.9854 49.136 17.2065 49.136 16.2329C49.136 14.6928 49.9326 12.1968 51.3841 12.1968C52.34 12.1968 52.641 13.0111 52.641 13.8077C52.641 15.4717 51.8444 17.9854 50.4282 17.9854Z" fill="#1B1B1B" fill-opacity="0.55"/>
<path d="M62.2173 10.1611C60.4117 10.1611 59.3851 11.7543 59.3851 11.7543H59.3497L59.509 10.3204H57.137C57.013 11.294 56.8006 12.7633 56.5882 13.8785L54.7295 23.6501H57.4025L58.146 19.6848H58.199C58.199 19.6848 58.7478 20.0388 59.7745 20.0388C62.9255 20.0388 64.9789 16.8171 64.9789 13.5599C64.9789 11.772 64.1822 10.1611 62.2173 10.1611ZM59.6683 18.0385C58.978 18.0385 58.5708 17.6491 58.5708 17.6491L59.0133 15.1531C59.332 13.489 60.1993 12.3738 61.1198 12.3738C61.9341 12.3738 62.182 13.135 62.182 13.8431C62.182 15.5602 61.1552 18.0385 59.6683 18.0385Z" fill="#1B1B1B" fill-opacity="0.55"/>
<path d="M68.8043 6.31989C67.9547 6.31989 67.2643 6.99256 67.2643 7.87766C67.2643 8.67426 67.7599 9.22305 68.5211 9.22305H68.5565C69.3885 9.22305 70.1143 8.65656 70.132 7.66524C70.1497 6.86865 69.6187 6.31989 68.8043 6.31989Z" fill="#1B1B1B" fill-opacity="0.55"/>
<path d="M65.0509 19.8614H67.7416L69.5649 10.373H66.8566L65.0509 19.8614Z" fill="#1B1B1B" fill-opacity="0.55"/>
<path d="M76.3624 10.3554H74.5038L74.5923 9.91288C74.7516 8.99238 75.2827 8.17808 76.1854 8.17808C76.6634 8.17808 77.0352 8.3197 77.0352 8.3197L77.5662 6.23086C77.5662 6.23086 77.1059 6.00073 76.1147 6.00073C75.1587 6.00073 74.2205 6.26626 73.4948 6.88583C72.5743 7.66472 72.1494 8.77995 71.937 9.91288L71.8662 10.3554H70.627L70.2376 12.3734H71.4768L70.0605 19.8614H72.7335L74.1497 12.3734H75.9907L76.3624 10.3554Z" fill="#1B1B1B" fill-opacity="0.55"/>
<path d="M82.8052 10.373C82.8052 10.373 81.1235 14.5862 80.38 16.8874H80.3446C80.2915 16.144 79.6896 10.373 79.6896 10.373H76.875L78.4859 19.0825C78.5213 19.2772 78.5036 19.4011 78.4328 19.525C78.1141 20.1269 77.6008 20.711 76.9813 21.1359C76.4856 21.5077 75.9191 21.7378 75.4766 21.8971L76.22 24.163C76.7688 24.0391 77.884 23.5965 78.8399 22.7114C80.0614 21.5608 81.1943 19.8083 82.3449 17.4008L85.6201 10.373H82.8052Z" fill="#1B1B1B" fill-opacity="0.55"/>
<path d="M19.8215 4.21235C19.8215 4.21235 19.5736 4.28316 19.1665 4.40707C19.0957 4.17695 18.9895 3.91142 18.8479 3.62818C18.3876 2.74308 17.6972 2.26512 16.883 2.26512C16.8298 2.26512 16.7767 2.26512 16.706 2.28282C16.6882 2.24742 16.6528 2.22972 16.6351 2.19432C16.2811 1.80487 15.8208 1.62785 15.2721 1.64555C14.21 1.68096 13.1478 2.44215 12.2982 3.80521C11.6963 4.76111 11.236 5.96485 11.1121 6.90306C9.89069 7.2748 9.041 7.54033 9.0233 7.55804C8.40374 7.75276 8.38604 7.77046 8.31523 8.35463C8.26212 8.79718 6.63354 21.2594 6.63354 21.2594L20.0162 23.5784V4.19465C19.91 4.19465 19.8569 4.21235 19.8215 4.21235ZM16.7236 5.16826C16.0156 5.38069 15.2367 5.62851 14.4755 5.85864C14.6879 5.02665 15.1127 4.19465 15.6084 3.64588C15.8031 3.45116 16.0687 3.22104 16.3696 3.07942C16.6705 3.71669 16.7413 4.58409 16.7236 5.16826ZM15.2721 2.37134C15.5199 2.37134 15.7323 2.42444 15.9093 2.53065C15.6261 2.67227 15.3429 2.9024 15.0773 3.16793C14.4047 3.89371 13.8913 5.02665 13.6789 6.10647C13.0416 6.30119 12.4044 6.49592 11.8202 6.67293C12.2096 4.97354 13.6435 2.40674 15.2721 2.37134ZM13.2187 12.1074C13.2895 13.2404 16.2811 13.4882 16.4581 16.1612C16.582 18.2678 15.3429 19.7017 13.555 19.8079C11.3954 19.9494 10.2093 18.6749 10.2093 18.6749L10.6696 16.7277C10.6696 16.7277 11.8556 17.6305 12.8115 17.5597C13.4311 17.5243 13.6612 17.0109 13.6435 16.6569C13.555 15.1699 11.1121 15.2585 10.9528 12.8156C10.8112 10.7621 12.1565 8.69097 15.1305 8.49625C16.2811 8.42543 16.8652 8.70867 16.8652 8.70867L16.1926 11.2578C16.1926 11.2578 15.4314 10.9037 14.5286 10.9745C13.2187 11.063 13.2009 11.8951 13.2187 12.1074ZM17.4317 4.95584C17.4317 4.42478 17.3609 3.66359 17.1131 3.02631C17.9274 3.18563 18.3168 4.08844 18.4938 4.6372C18.1752 4.72571 17.8211 4.83192 17.4317 4.95584Z" fill="#1B1B1B" fill-opacity="0.55"/>
<path d="M20.423 23.5434L25.9814 22.1627C25.9814 22.1627 23.5916 6.00072 23.5739 5.8945C23.5562 5.78829 23.4677 5.71749 23.3792 5.71749C23.2906 5.71749 21.7329 5.68208 21.7329 5.68208C21.7329 5.68208 20.777 4.76157 20.423 4.40753V23.5434Z" fill="#1B1B1B" fill-opacity="0.55"/>
</g>
</g>
<defs>
<clipPath id="clip0_32_175">
<rect width="78.9864" height="22.5185" fill="white" transform="translate(6.63354 1.64435)"/>
</clipPath>
</defs>
</svg>
