<svg width="94" height="25" viewBox="0 0 94 25" fill="none" xmlns="http://www.w3.org/2000/svg">
<path d="M14.16 14.56H4.848V24H0.624V1.664H4.848V10.816H14.16V1.664H18.384V24H14.16V14.56ZM24.136 4.864C23.2827 4.864 22.664 4.672 22.28 4.288C21.9173 3.904 21.736 3.41333 21.736 2.816V2.176C21.736 1.57867 21.9173 1.088 22.28 0.703999C22.664 0.319998 23.2827 0.127998 24.136 0.127998C24.968 0.127998 25.576 0.319998 25.96 0.703999C26.344 1.088 26.536 1.57867 26.536 2.176V2.816C26.536 3.41333 26.344 3.904 25.96 4.288C25.576 4.672 24.968 4.864 24.136 4.864ZM22.088 7.296H26.184V24H22.088V7.296ZM29.6518 24V7.296H33.7478V10.752H33.9078C34.0144 10.304 34.1744 9.87733 34.3878 9.472C34.6224 9.04533 34.9211 8.672 35.2838 8.352C35.6464 8.032 36.0731 7.776 36.5638 7.584C37.0758 7.392 37.6624 7.296 38.3238 7.296H39.2198V11.168H37.9398C36.5531 11.168 35.5078 11.3707 34.8038 11.776C34.0998 12.1813 33.7478 12.8427 33.7478 13.76V24H29.6518ZM47.53 24.384C46.2927 24.384 45.1833 24.1813 44.202 23.776C43.242 23.3493 42.4207 22.7627 41.738 22.016C41.0767 21.248 40.5647 20.3307 40.202 19.264C39.8393 18.176 39.658 16.96 39.658 15.616C39.658 14.2933 39.8287 13.0987 40.17 12.032C40.5327 10.9653 41.0447 10.0587 41.706 9.312C42.3673 8.544 43.178 7.95733 44.138 7.552C45.098 7.12533 46.186 6.912 47.402 6.912C48.7033 6.912 49.834 7.136 50.794 7.584C51.754 8.032 52.5433 8.64 53.162 9.408C53.7807 10.176 54.2393 11.072 54.538 12.096C54.858 13.0987 55.018 14.176 55.018 15.328V16.672H43.914V17.088C43.914 18.304 44.2553 19.2853 44.938 20.032C45.6207 20.7573 46.634 21.12 47.978 21.12C49.002 21.12 49.834 20.9067 50.474 20.48C51.1353 20.0533 51.722 19.5093 52.234 18.848L54.442 21.312C53.7593 22.272 52.8207 23.0293 51.626 23.584C50.4527 24.1173 49.0873 24.384 47.53 24.384ZM47.466 9.984C46.378 9.984 45.514 10.3467 44.874 11.072C44.234 11.7973 43.914 12.736 43.914 13.888V14.144H50.762V13.856C50.762 12.704 50.474 11.776 49.898 11.072C49.3433 10.3467 48.5327 9.984 47.466 9.984ZM71.8378 20.544H71.7098C71.5178 21.632 70.9098 22.5493 69.8858 23.296C68.8831 24.0213 67.5391 24.384 65.8538 24.384C64.5311 24.384 63.3044 24.1387 62.1738 23.648C61.0644 23.1573 60.0938 22.432 59.2618 21.472C58.4511 20.4907 57.8111 19.2853 57.3418 17.856C56.8724 16.4267 56.6378 14.7733 56.6378 12.896C56.6378 11.0187 56.8724 9.36533 57.3418 7.936C57.8324 6.48533 58.5151 5.26933 59.3898 4.288C60.2644 3.30666 61.3098 2.56 62.5258 2.048C63.7418 1.536 65.0964 1.28 66.5898 1.28C68.5951 1.28 70.3018 1.71733 71.7098 2.592C73.1178 3.46667 74.2271 4.72533 75.0378 6.368L71.6138 8.384C71.2084 7.424 70.6004 6.624 69.7898 5.984C69.0004 5.344 67.9338 5.024 66.5898 5.024C64.9258 5.024 63.5924 5.536 62.5898 6.56C61.6084 7.56267 61.1178 9.056 61.1178 11.04V14.624C61.1178 16.5867 61.6191 18.08 62.6218 19.104C63.6244 20.128 64.9684 20.64 66.6538 20.64C67.3151 20.64 67.9338 20.5653 68.5098 20.416C69.0858 20.2453 69.5871 20 70.0138 19.68C70.4404 19.36 70.7818 18.9653 71.0378 18.496C71.2938 18.0267 71.4218 17.472 71.4218 16.832V15.392H67.0378V11.84H75.4858V24H71.8378V20.544ZM85.467 24.384C84.2723 24.384 83.195 24.1813 82.235 23.776C81.2963 23.3707 80.4857 22.784 79.803 22.016C79.1417 21.248 78.6297 20.3307 78.267 19.264C77.9043 18.176 77.723 16.96 77.723 15.616C77.723 14.272 77.9043 13.0667 78.267 12C78.6297 10.9333 79.1417 10.0267 79.803 9.28C80.4857 8.512 81.2963 7.92533 82.235 7.52C83.195 7.11467 84.2723 6.912 85.467 6.912C86.6617 6.912 87.739 7.11467 88.699 7.52C89.659 7.92533 90.4697 8.512 91.131 9.28C91.8137 10.0267 92.3363 10.9333 92.699 12C93.0617 13.0667 93.243 14.272 93.243 15.616C93.243 16.96 93.0617 18.176 92.699 19.264C92.3363 20.3307 91.8137 21.248 91.131 22.016C90.4697 22.784 89.659 23.3707 88.699 23.776C87.739 24.1813 86.6617 24.384 85.467 24.384ZM85.467 21.088C86.555 21.088 87.4083 20.7573 88.027 20.096C88.6457 19.4347 88.955 18.464 88.955 17.184V14.08C88.955 12.8213 88.6457 11.8613 88.027 11.2C87.4083 10.5387 86.555 10.208 85.467 10.208C84.4003 10.208 83.5577 10.5387 82.939 11.2C82.3203 11.8613 82.011 12.8213 82.011 14.08V17.184C82.011 18.464 82.3203 19.4347 82.939 20.096C83.5577 20.7573 84.4003 21.088 85.467 21.088Z" fill="#141414"/>
</svg>
