<svg width="24" height="25" viewBox="0 0 24 25" fill="none" xmlns="http://www.w3.org/2000/svg">
<path d="M19.5 6.5L18.0333 7.6C17.6871 7.85964 17.2661 8 16.8333 8H13.475C12.8775 8 12.3312 8.33761 12.064 8.87206V8.87206C11.7342 9.53161 11.9053 10.3316 12.476 10.7986L14.476 12.4349C16.0499 13.7227 16.8644 15.72 16.6399 17.7412L16.5936 18.1577C16.5314 18.7177 16.4102 19.2695 16.232 19.804L16 20.5" stroke="black" stroke-opacity="0.85" stroke-width="2"/>
<path d="M2.5 11L5.7381 10.4603C7.09174 10.2347 8.26529 11.4083 8.03968 12.7619L7.90517 13.569C7.66434 15.014 8.3941 16.4471 9.70437 17.1022V17.1022C10.7535 17.6268 11.2976 18.8097 11.0131 19.9476L10.5 22" stroke="black" stroke-opacity="0.85" stroke-width="2"/>
<circle cx="12" cy="12.5" r="9" stroke="black" stroke-opacity="0.85" stroke-width="2"/>
</svg>
