<svg width="83" height="31" viewBox="0 0 83 31" fill="none" xmlns="http://www.w3.org/2000/svg">
<path d="M20.6992 15.4507C20.6992 11.2018 17.2548 7.75732 13.0058 7.75732C8.75693 7.75732 5.3125 11.2018 5.3125 15.4507C5.3125 19.6996 8.75693 23.144 13.0058 23.144C17.2548 23.144 20.6992 19.6996 20.6992 15.4507Z" stroke="white" stroke-width="1.125"/>
<path d="M16.0171 10.7744C16.0171 9.10814 14.6663 7.75732 13 7.75732C11.3337 7.75732 9.98291 9.10814 9.98291 10.7744V20.1269C9.98291 21.7932 11.3337 23.144 13 23.144C14.6663 23.144 16.0171 21.7932 16.0171 20.1269V10.7744Z" stroke="white" stroke-width="1.125"/>
<path d="M5.64697 15.3916H20.6991" stroke="white" stroke-width="1.125"/>
<path d="M31.1186 20.3916V10.2098H37.5021V11.5322H32.6548V14.6345H37.169V15.952H32.6548V19.0692H37.5618V20.3916H31.1186ZM40.9213 15.8575V20.3916H39.4348V12.7552H40.8617V13.9981H40.9561C41.1318 13.5938 41.4069 13.269 41.7814 13.0237C42.1593 12.7784 42.6349 12.6558 43.2083 12.6558C43.7286 12.6558 44.1844 12.7652 44.5755 12.9839C44.9666 13.1994 45.2698 13.5209 45.4853 13.9484C45.7007 14.376 45.8084 14.9046 45.8084 15.5344V20.3916H44.3219V15.7133C44.3219 15.1598 44.1777 14.7273 43.8894 14.4157C43.601 14.1009 43.205 13.9434 42.7012 13.9434C42.3565 13.9434 42.0499 14.018 41.7814 14.1672C41.5163 14.3163 41.3058 14.5351 41.15 14.8234C40.9976 15.1085 40.9213 15.4532 40.9213 15.8575ZM51.0037 23.4143C50.3972 23.4143 49.8752 23.3348 49.4377 23.1757C49.0035 23.0166 48.6489 22.8061 48.3738 22.5443C48.0987 22.2825 47.8932 21.9958 47.7573 21.6842L49.035 21.1572C49.1245 21.3031 49.2438 21.4572 49.3929 21.6196C49.5454 21.7853 49.7509 21.9262 50.0094 22.0422C50.2712 22.1582 50.6077 22.2162 51.0186 22.2162C51.5821 22.2162 52.0478 22.0786 52.4157 21.8035C52.7836 21.5318 52.9675 21.0976 52.9675 20.501V18.9996H52.873C52.7836 19.162 52.6543 19.3426 52.4853 19.5415C52.3195 19.7403 52.0909 19.9127 51.7992 20.0585C51.5075 20.2043 51.128 20.2773 50.6607 20.2773C50.0575 20.2773 49.5139 20.1364 49.03 19.8547C48.5494 19.5696 48.1683 19.1504 47.8865 18.5969C47.6081 18.04 47.4689 17.3556 47.4689 16.5436C47.4689 15.7316 47.6065 15.0355 47.8816 14.4555C48.16 13.8755 48.5411 13.4314 49.025 13.1231C49.5089 12.8116 50.0575 12.6558 50.6706 12.6558C51.1446 12.6558 51.5274 12.7354 51.8191 12.8944C52.1107 13.0502 52.3378 13.2325 52.5002 13.4413C52.6659 13.6501 52.7935 13.8341 52.883 13.9932H52.9924V12.7552H54.449V20.5606C54.449 21.2169 54.2966 21.7555 53.9917 22.1764C53.6867 22.5973 53.2741 22.9089 52.7537 23.1111C52.2367 23.3132 51.6534 23.4143 51.0037 23.4143ZM50.9888 19.0443C51.4164 19.0443 51.7776 18.9449 52.0726 18.746C52.3709 18.5438 52.5963 18.2555 52.7488 17.8809C52.9045 17.5031 52.9824 17.0507 52.9824 16.5237C52.9824 16.01 52.9062 15.5576 52.7537 15.1665C52.6013 14.7754 52.3775 14.4704 52.0826 14.2517C51.7876 14.0296 51.423 13.9186 50.9888 13.9186C50.5414 13.9186 50.1685 14.0346 49.8702 14.2666C49.5719 14.4953 49.3465 14.8068 49.1941 15.2013C49.0449 15.5957 48.9703 16.0365 48.9703 16.5237C48.9703 17.0242 49.0466 17.4633 49.199 17.8412C49.3515 18.219 49.5769 18.514 49.8752 18.7261C50.1768 18.9382 50.548 19.0443 50.9888 19.0443ZM57.9292 10.2098V20.3916H56.4426V10.2098H57.9292ZM59.929 20.3916V12.7552H61.4155V20.3916H59.929ZM60.6797 11.577C60.4212 11.577 60.1991 11.4908 60.0135 11.3184C59.8312 11.1428 59.7401 10.934 59.7401 10.692C59.7401 10.4468 59.8312 10.238 60.0135 10.0656C60.1991 9.88994 60.4212 9.80211 60.6797 9.80211C60.9382 9.80211 61.1586 9.88994 61.3409 10.0656C61.5265 10.238 61.6193 10.4468 61.6193 10.692C61.6193 10.934 61.5265 11.1428 61.3409 11.3184C61.1586 11.4908 60.9382 11.577 60.6797 11.577ZM69.1376 14.6196L67.7903 14.8582C67.734 14.6859 67.6445 14.5218 67.5218 14.366C67.4025 14.2103 67.2401 14.0827 67.0346 13.9832C66.8291 13.8838 66.5723 13.8341 66.264 13.8341C65.8431 13.8341 65.4918 13.9285 65.21 14.1175C64.9283 14.3031 64.7875 14.5434 64.7875 14.8383C64.7875 15.0935 64.8819 15.299 65.0708 15.4548C65.2598 15.6106 65.5647 15.7382 65.9856 15.8376L67.1987 16.116C67.9013 16.2784 68.425 16.5287 68.7697 16.8667C69.1144 17.2048 69.2868 17.644 69.2868 18.1842C69.2868 18.6416 69.1542 19.0493 68.889 19.4072C68.6272 19.7619 68.2609 20.0403 67.7903 20.2425C67.323 20.4446 66.7811 20.5457 66.1646 20.5457C65.3095 20.5457 64.6118 20.3634 64.0716 19.9988C63.5313 19.6309 63.1999 19.1089 63.0772 18.4328L64.514 18.214C64.6035 18.5886 64.7875 18.872 65.0659 19.0642C65.3443 19.2531 65.7072 19.3476 66.1547 19.3476C66.6419 19.3476 67.0313 19.2465 67.323 19.0443C67.6146 18.8388 67.7605 18.5886 67.7605 18.2936C67.7605 18.055 67.671 17.8544 67.492 17.692C67.3163 17.5296 67.0462 17.407 66.6816 17.3241L65.389 17.0407C64.6764 16.8783 64.1494 16.6198 63.8081 16.2652C63.47 15.9105 63.301 15.4614 63.301 14.9179C63.301 14.4671 63.4269 14.0727 63.6788 13.7346C63.9307 13.3966 64.2787 13.1331 64.7228 12.9442C65.167 12.7519 65.6757 12.6558 66.2491 12.6558C67.0744 12.6558 67.724 12.8348 68.198 13.1927C68.6719 13.5474 68.9851 14.023 69.1376 14.6196ZM72.4077 15.8575V20.3916H70.9212V10.2098H72.3878V13.9981H72.4822C72.6612 13.5872 72.9347 13.2607 73.3026 13.0187C73.6705 12.7768 74.151 12.6558 74.7443 12.6558C75.268 12.6558 75.7254 12.7635 76.1165 12.979C76.5109 13.1944 76.8158 13.5159 77.0312 13.9434C77.25 14.3677 77.3594 14.898 77.3594 15.5344V20.3916H75.8729V15.7133C75.8729 15.1532 75.7287 14.719 75.4403 14.4108C75.152 14.0992 74.7509 13.9434 74.2372 13.9434C73.8859 13.9434 73.571 14.018 73.2926 14.1672C73.0175 14.3163 72.8004 14.5351 72.6413 14.8234C72.4856 15.1085 72.4077 15.4532 72.4077 15.8575Z" fill="white"/>
</svg>
