<svg width="94" height="25" viewBox="0 0 94 25" fill="none" xmlns="http://www.w3.org/2000/svg">
<path d="M14.16 14.9516H4.848V24.3916H0.624V2.0556H4.848V11.2076H14.16V2.0556H18.384V24.3916H14.16V14.9516ZM24.136 5.2556C23.2827 5.2556 22.664 5.0636 22.28 4.6796C21.9173 4.2956 21.736 3.80493 21.736 3.2076V2.5676C21.736 1.97027 21.9173 1.4796 22.28 1.0956C22.664 0.7116 23.2827 0.5196 24.136 0.5196C24.968 0.5196 25.576 0.7116 25.96 1.0956C26.344 1.4796 26.536 1.97027 26.536 2.5676V3.2076C26.536 3.80493 26.344 4.2956 25.96 4.6796C25.576 5.0636 24.968 5.2556 24.136 5.2556ZM22.088 7.6876H26.184V24.3916H22.088V7.6876ZM29.6518 24.3916V7.6876H33.7478V11.1436H33.9078C34.0144 10.6956 34.1744 10.2689 34.3878 9.8636C34.6224 9.43693 34.9211 9.0636 35.2838 8.7436C35.6464 8.4236 36.0731 8.1676 36.5638 7.9756C37.0758 7.7836 37.6624 7.6876 38.3238 7.6876H39.2198V11.5596H37.9398C36.5531 11.5596 35.5078 11.7623 34.8038 12.1676C34.0998 12.5729 33.7478 13.2343 33.7478 14.1516V24.3916H29.6518ZM47.53 24.7756C46.2927 24.7756 45.1833 24.5729 44.202 24.1676C43.242 23.7409 42.4207 23.1543 41.738 22.4076C41.0767 21.6396 40.5647 20.7223 40.202 19.6556C39.8393 18.5676 39.658 17.3516 39.658 16.0076C39.658 14.6849 39.8287 13.4903 40.17 12.4236C40.5327 11.3569 41.0447 10.4503 41.706 9.7036C42.3673 8.9356 43.178 8.34893 44.138 7.9436C45.098 7.51693 46.186 7.3036 47.402 7.3036C48.7033 7.3036 49.834 7.5276 50.794 7.9756C51.754 8.4236 52.5433 9.0316 53.162 9.7996C53.7807 10.5676 54.2393 11.4636 54.538 12.4876C54.858 13.4903 55.018 14.5676 55.018 15.7196V17.0636H43.914V17.4796C43.914 18.6956 44.2553 19.6769 44.938 20.4236C45.6207 21.1489 46.634 21.5116 47.978 21.5116C49.002 21.5116 49.834 21.2983 50.474 20.8716C51.1353 20.4449 51.722 19.9009 52.234 19.2396L54.442 21.7036C53.7593 22.6636 52.8207 23.4209 51.626 23.9756C50.4527 24.5089 49.0873 24.7756 47.53 24.7756ZM47.466 10.3756C46.378 10.3756 45.514 10.7383 44.874 11.4636C44.234 12.1889 43.914 13.1276 43.914 14.2796V14.5356H50.762V14.2476C50.762 13.0956 50.474 12.1676 49.898 11.4636C49.3433 10.7383 48.5327 10.3756 47.466 10.3756ZM71.8378 20.9356H71.7098C71.5178 22.0236 70.9098 22.9409 69.8858 23.6876C68.8831 24.4129 67.5391 24.7756 65.8538 24.7756C64.5311 24.7756 63.3044 24.5303 62.1738 24.0396C61.0644 23.5489 60.0938 22.8236 59.2618 21.8636C58.4511 20.8823 57.8111 19.6769 57.3418 18.2476C56.8724 16.8183 56.6378 15.1649 56.6378 13.2876C56.6378 11.4103 56.8724 9.75693 57.3418 8.3276C57.8324 6.87693 58.5151 5.66093 59.3898 4.6796C60.2644 3.69827 61.3098 2.9516 62.5258 2.4396C63.7418 1.9276 65.0964 1.6716 66.5898 1.6716C68.5951 1.6716 70.3018 2.10893 71.7098 2.9836C73.1178 3.85827 74.2271 5.11693 75.0378 6.7596L71.6138 8.7756C71.2084 7.8156 70.6004 7.0156 69.7898 6.3756C69.0004 5.7356 67.9338 5.4156 66.5898 5.4156C64.9258 5.4156 63.5924 5.9276 62.5898 6.9516C61.6084 7.95427 61.1178 9.4476 61.1178 11.4316V15.0156C61.1178 16.9783 61.6191 18.4716 62.6218 19.4956C63.6244 20.5196 64.9684 21.0316 66.6538 21.0316C67.3151 21.0316 67.9338 20.9569 68.5098 20.8076C69.0858 20.6369 69.5871 20.3916 70.0138 20.0716C70.4404 19.7516 70.7818 19.3569 71.0378 18.8876C71.2938 18.4183 71.4218 17.8636 71.4218 17.2236V15.7836H67.0378V12.2316H75.4858V24.3916H71.8378V20.9356ZM85.467 24.7756C84.2723 24.7756 83.195 24.5729 82.235 24.1676C81.2963 23.7623 80.4857 23.1756 79.803 22.4076C79.1417 21.6396 78.6297 20.7223 78.267 19.6556C77.9043 18.5676 77.723 17.3516 77.723 16.0076C77.723 14.6636 77.9043 13.4583 78.267 12.3916C78.6297 11.3249 79.1417 10.4183 79.803 9.6716C80.4857 8.9036 81.2963 8.31693 82.235 7.9116C83.195 7.50627 84.2723 7.3036 85.467 7.3036C86.6617 7.3036 87.739 7.50627 88.699 7.9116C89.659 8.31693 90.4697 8.9036 91.131 9.6716C91.8137 10.4183 92.3363 11.3249 92.699 12.3916C93.0617 13.4583 93.243 14.6636 93.243 16.0076C93.243 17.3516 93.0617 18.5676 92.699 19.6556C92.3363 20.7223 91.8137 21.6396 91.131 22.4076C90.4697 23.1756 89.659 23.7623 88.699 24.1676C87.739 24.5729 86.6617 24.7756 85.467 24.7756ZM85.467 21.4796C86.555 21.4796 87.4083 21.1489 88.027 20.4876C88.6457 19.8263 88.955 18.8556 88.955 17.5756V14.4716C88.955 13.2129 88.6457 12.2529 88.027 11.5916C87.4083 10.9303 86.555 10.5996 85.467 10.5996C84.4003 10.5996 83.5577 10.9303 82.939 11.5916C82.3203 12.2529 82.011 13.2129 82.011 14.4716V17.5756C82.011 18.8556 82.3203 19.8263 82.939 20.4876C83.5577 21.1489 84.4003 21.4796 85.467 21.4796Z" fill="white"/>
</svg>
