<svg width="41" height="41" viewBox="0 0 41 41" fill="none" xmlns="http://www.w3.org/2000/svg">
<g clip-path="url(#clip0_32_426)">
<path d="M40.9844 20.3916C40.9844 9.34591 32.0301 0.391602 20.9844 0.391602C9.93868 0.391602 0.984375 9.34591 0.984375 20.3916C0.984375 31.4373 9.93868 40.3916 20.9844 40.3916C32.0301 40.3916 40.9844 31.4373 40.9844 20.3916Z" fill="white" fill-opacity="0.12"/>
<path d="M17.1527 20.3916C17.1527 18.2746 18.8684 16.558 20.9854 16.558C23.1024 16.558 24.819 18.2746 24.819 20.3916C24.819 22.5086 23.1024 24.2252 20.9854 24.2252C18.8684 24.2252 17.1527 22.5086 17.1527 20.3916ZM15.0802 20.3916C15.0802 23.653 17.7239 26.2967 20.9854 26.2967C24.2468 26.2967 26.8905 23.653 26.8905 20.3916C26.8905 17.1302 24.2468 14.4865 20.9854 14.4865C17.7239 14.4865 15.0802 17.1302 15.0802 20.3916ZM25.7442 14.2524C25.7442 15.0141 26.362 15.6328 27.1246 15.6328C27.8863 15.6328 28.505 15.0141 28.505 14.2524C28.505 13.4907 27.8872 12.8729 27.1246 12.8729C26.362 12.8729 25.7442 13.4907 25.7442 14.2524ZM16.3389 29.7523C15.2177 29.7012 14.6084 29.5145 14.2033 29.3566C13.6664 29.1476 13.2837 28.8986 12.8806 28.4964C12.4783 28.0942 12.2285 27.7115 12.0204 27.1746C11.8625 26.7696 11.6758 26.1602 11.6247 25.039C11.5689 23.8267 11.5578 23.4626 11.5578 20.3916C11.5578 17.3206 11.5699 16.9574 11.6247 15.7442C11.6758 14.623 11.8634 14.0146 12.0204 13.6086C12.2294 13.0717 12.4783 12.689 12.8806 12.2859C13.2828 11.8836 13.6655 11.6338 14.2033 11.4257C14.6084 11.2678 15.2177 11.0811 16.3389 11.03C17.5512 10.9742 17.9153 10.9631 20.9854 10.9631C24.0564 10.9631 24.4196 10.9752 25.6328 11.03C26.754 11.0811 27.3624 11.2687 27.7683 11.4257C28.3052 11.6338 28.688 11.8836 29.0911 12.2859C29.4933 12.6881 29.7423 13.0717 29.9513 13.6086C30.1092 14.0137 30.2959 14.623 30.347 15.7442C30.4027 16.9574 30.4139 17.3206 30.4139 20.3916C30.4139 23.4617 30.4027 23.8258 30.347 25.039C30.2959 26.1602 30.1083 26.7696 29.9513 27.1746C29.7423 27.7115 29.4933 28.0942 29.0911 28.4964C28.6889 28.8986 28.3052 29.1476 27.7683 29.3566C27.3633 29.5145 26.754 29.7012 25.6328 29.7523C24.4205 29.808 24.0564 29.8192 20.9854 29.8192C17.9153 29.8192 17.5512 29.808 16.3389 29.7523ZM16.2442 8.96127C15.0199 9.017 14.1838 9.21115 13.4528 9.4954C12.6966 9.78893 12.0557 10.1828 11.4157 10.8219C10.7765 11.461 10.3827 12.1019 10.0891 12.859C9.80489 13.5901 9.61075 14.4261 9.55502 15.6504C9.49835 16.8766 9.48535 17.2686 9.48535 20.3916C9.48535 23.5146 9.49835 23.9066 9.55502 25.1328C9.61075 26.3571 9.80489 27.1931 10.0891 27.9242C10.3827 28.6803 10.7756 29.3222 11.4157 29.9613C12.0548 30.6004 12.6957 30.9933 13.4528 31.2878C14.1848 31.5721 15.0199 31.7662 16.2442 31.8219C17.4713 31.8777 17.8624 31.8916 20.9854 31.8916C24.1093 31.8916 24.5004 31.8786 25.7266 31.8219C26.9509 31.7662 27.7869 31.5721 28.518 31.2878C29.2741 30.9933 29.9151 30.6004 30.5551 29.9613C31.1942 29.3222 31.5871 28.6803 31.8816 27.9242C32.1658 27.1931 32.3609 26.3571 32.4157 25.1328C32.4714 23.9057 32.4844 23.5146 32.4844 20.3916C32.4844 17.2686 32.4714 16.8766 32.4157 15.6504C32.36 14.4261 32.1658 13.5901 31.8816 12.859C31.5871 12.1029 31.1942 11.4619 30.5551 10.8219C29.916 10.1828 29.2741 9.78893 28.5189 9.4954C27.7869 9.21115 26.9509 9.01608 25.7275 8.96127C24.5013 8.90553 24.1093 8.8916 20.9863 8.8916C17.8624 8.8916 17.4713 8.9046 16.2442 8.96127Z" fill="white"/>
</g>
<defs>
<clipPath id="clip0_32_426">
<rect width="40" height="40" fill="white" transform="translate(0.984375 0.391602)"/>
</clipPath>
</defs>
</svg>
