<svg width="41" height="41" viewBox="0 0 41 41" fill="none" xmlns="http://www.w3.org/2000/svg">
<g clip-path="url(#clip0_32_418)">
<path d="M40.3281 20.3916C40.3281 9.34591 31.3738 0.391602 20.3281 0.391602C9.28243 0.391602 0.328125 9.34591 0.328125 20.3916C0.328125 31.4373 9.28243 40.3916 20.3281 40.3916C31.3738 40.3916 40.3281 31.4373 40.3281 20.3916Z" fill="white" fill-opacity="0.12"/>
<path d="M24.3286 16.8916C25.92 16.8916 27.4461 17.5237 28.5713 18.649C29.6965 19.7742 30.3287 21.3003 30.3287 22.8916V29.8917H26.3287V22.8916C26.3287 22.3612 26.1179 21.8525 25.7429 21.4774C25.3678 21.1023 24.8591 20.8916 24.3286 20.8916C23.7982 20.8916 23.2895 21.1023 22.9144 21.4774C22.5393 21.8525 22.3286 22.3612 22.3286 22.8916V29.8917H18.3286V22.8916C18.3286 21.3003 18.9607 19.7742 20.086 18.649C21.2112 17.5237 22.7373 16.8916 24.3286 16.8916Z" fill="white"/>
<path d="M14.3281 17.8916H10.3281V29.8917H14.3281V17.8916Z" fill="white"/>
<path d="M12.3281 14.8921C13.4327 14.8921 14.3281 13.9967 14.3281 12.8921C14.3281 11.7875 13.4327 10.8921 12.3281 10.8921C11.2235 10.8921 10.3281 11.7875 10.3281 12.8921C10.3281 13.9967 11.2235 14.8921 12.3281 14.8921Z" fill="white"/>
</g>
<defs>
<clipPath id="clip0_32_418">
<rect width="40" height="40" fill="white" transform="translate(0.328125 0.391602)"/>
</clipPath>
</defs>
</svg>
