<svg width="41" height="41" viewBox="0 0 41 41" fill="none" xmlns="http://www.w3.org/2000/svg">
<g clip-path="url(#clip0_32_423)">
<path d="M40.6562 20.3916C40.6562 9.34591 31.7019 0.391602 20.6562 0.391602C9.61055 0.391602 0.65625 9.34591 0.65625 20.3916C0.65625 31.4373 9.61055 40.3916 20.6562 40.3916C31.7019 40.3916 40.6562 31.4373 40.6562 20.3916Z" fill="white" fill-opacity="0.12"/>
<path d="M26.1558 10.3916H23.1558C21.8297 10.3916 20.558 10.9184 19.6203 11.8561C18.6826 12.7938 18.1558 14.0655 18.1558 15.3916V18.3916H15.1558V22.3916H18.1558V30.3916H22.1558V22.3916H25.1558L26.1558 18.3916H22.1558V15.3916C22.1558 15.1264 22.2612 14.872 22.4487 14.6845C22.6363 14.497 22.8906 14.3916 23.1558 14.3916H26.1558V10.3916Z" fill="white"/>
</g>
<defs>
<clipPath id="clip0_32_423">
<rect width="40" height="40" fill="white" transform="translate(0.65625 0.391602)"/>
</clipPath>
</defs>
</svg>
