<svg width="40" height="41" viewBox="0 0 40 41" fill="none" xmlns="http://www.w3.org/2000/svg">
<g clip-path="url(#clip0_32_411)">
<path d="M40 20.3916C40 9.34591 31.0457 0.391602 20 0.391602C8.9543 0.391602 0 9.34591 0 20.3916C0 31.4373 8.9543 40.3916 20 40.3916C31.0457 40.3916 40 31.4373 40 20.3916Z" fill="white" fill-opacity="0.12"/>
<mask id="mask0_32_411" style="mask-type:luminance" maskUnits="userSpaceOnUse" x="11" y="11" width="18" height="19">
<path d="M28.75 11.6416H11.25V29.1416H28.75V11.6416Z" fill="white"/>
</mask>
<g mask="url(#mask0_32_411)">
<path d="M21.6649 19.0479L28.1796 11.6416H26.6359L20.9791 18.0723L16.461 11.6416H11.25L18.0822 21.366L11.25 29.1326H12.7939L18.7676 22.3415L23.539 29.1326H28.75L21.6649 19.0479ZM19.5503 21.4517L18.8581 20.4834L13.3502 12.7782H15.7215L20.1664 18.9965L20.8587 19.9649L26.6366 28.0477H24.2653L19.5503 21.4517Z" fill="white"/>
</g>
</g>
<defs>
<clipPath id="clip0_32_411">
<rect width="40" height="40" fill="white" transform="translate(0 0.391602)"/>
</clipPath>
</defs>
</svg>
